G04 #@! TF.GenerationSoftware,KiCad,Pcbnew,(6.0.1-0)*
G04 #@! TF.CreationDate,2023-10-11T15:07:40-07:00*
G04 #@! TF.ProjectId,synth,73796e74-682e-46b6-9963-61645f706362,rev?*
G04 #@! TF.SameCoordinates,Original*
G04 #@! TF.FileFunction,Soldermask,Bot*
G04 #@! TF.FilePolarity,Negative*
%FSLAX46Y46*%
G04 Gerber Fmt 4.6, Leading zero omitted, Abs format (unit mm)*
G04 Created by KiCad (PCBNEW (6.0.1-0)) date 2023-10-11 15:07:40*
%MOMM*%
%LPD*%
G01*
G04 APERTURE LIST*
G04 Aperture macros list*
%AMRoundRect*
0 Rectangle with rounded corners*
0 $1 Rounding radius*
0 $2 $3 $4 $5 $6 $7 $8 $9 X,Y pos of 4 corners*
0 Add a 4 corners polygon primitive as box body*
4,1,4,$2,$3,$4,$5,$6,$7,$8,$9,$2,$3,0*
0 Add four circle primitives for the rounded corners*
1,1,$1+$1,$2,$3*
1,1,$1+$1,$4,$5*
1,1,$1+$1,$6,$7*
1,1,$1+$1,$8,$9*
0 Add four rect primitives between the rounded corners*
20,1,$1+$1,$2,$3,$4,$5,0*
20,1,$1+$1,$4,$5,$6,$7,0*
20,1,$1+$1,$6,$7,$8,$9,0*
20,1,$1+$1,$8,$9,$2,$3,0*%
G04 Aperture macros list end*
%ADD10RoundRect,0.050800X-1.000000X-1.000000X1.000000X-1.000000X1.000000X1.000000X-1.000000X1.000000X0*%
%ADD11C,2.101600*%
%ADD12RoundRect,0.050800X-1.400000X-1.900000X1.400000X-1.900000X1.400000X1.900000X-1.400000X1.900000X0*%
%ADD13RoundRect,0.050800X0.850000X-0.850000X0.850000X0.850000X-0.850000X0.850000X-0.850000X-0.850000X0*%
%ADD14O,1.801600X1.801600*%
%ADD15RoundRect,0.050800X-1.050000X-1.050000X1.050000X-1.050000X1.050000X1.050000X-1.050000X1.050000X0*%
%ADD16C,2.201600*%
%ADD17RoundRect,0.050800X-0.850000X0.850000X-0.850000X-0.850000X0.850000X-0.850000X0.850000X0.850000X0*%
%ADD18C,6.301600*%
%ADD19RoundRect,0.050800X-1.400000X-1.800000X1.400000X-1.800000X1.400000X1.800000X-1.400000X1.800000X0*%
G04 APERTURE END LIST*
D10*
X180340000Y-146050000D03*
D11*
X184090000Y-146050000D03*
X187840000Y-146050000D03*
D12*
X178890000Y-137725000D03*
X189290000Y-137725000D03*
D10*
X158750000Y-146050000D03*
D11*
X162500000Y-146050000D03*
X166250000Y-146050000D03*
D12*
X157300000Y-137725000D03*
X167700000Y-137725000D03*
D10*
X137160000Y-146050000D03*
D11*
X140910000Y-146050000D03*
X144660000Y-146050000D03*
D12*
X146110000Y-137725000D03*
X135710000Y-137725000D03*
D10*
X115500000Y-145950000D03*
D11*
X119250000Y-145950000D03*
X123000000Y-145950000D03*
D12*
X124450000Y-137625000D03*
X114050000Y-137625000D03*
D10*
X115570000Y-114300000D03*
D11*
X119320000Y-114300000D03*
X123070000Y-114300000D03*
D12*
X124520000Y-105975000D03*
X114120000Y-105975000D03*
D13*
X140880000Y-98520000D03*
D14*
X143420000Y-98520000D03*
X145960000Y-98520000D03*
X148500000Y-98520000D03*
X151040000Y-98520000D03*
X153580000Y-98520000D03*
X156120000Y-98520000D03*
D15*
X243865400Y-158623000D03*
D16*
X248945400Y-158623000D03*
X248945400Y-163703000D03*
X243865400Y-163703000D03*
D17*
X297535600Y-153797000D03*
D14*
X294995600Y-153797000D03*
X292455600Y-153797000D03*
X289915600Y-153797000D03*
X287375600Y-153797000D03*
D18*
X231500000Y-120950000D03*
X173500000Y-97950000D03*
X173500000Y-120950000D03*
X231500000Y-97950000D03*
D17*
X226620000Y-119670000D03*
D14*
X226620000Y-122210000D03*
X224080000Y-119670000D03*
X224080000Y-122210000D03*
X221540000Y-119670000D03*
X221540000Y-122210000D03*
X219000000Y-119670000D03*
X219000000Y-122210000D03*
X216460000Y-119670000D03*
X216460000Y-122210000D03*
X213920000Y-119670000D03*
X213920000Y-122210000D03*
X211380000Y-119670000D03*
X211380000Y-122210000D03*
X208840000Y-119670000D03*
X208840000Y-122210000D03*
X206300000Y-119670000D03*
X206300000Y-122210000D03*
X203760000Y-119670000D03*
X203760000Y-122210000D03*
X201220000Y-119670000D03*
X201220000Y-122210000D03*
X198680000Y-119670000D03*
X198680000Y-122210000D03*
X196140000Y-119670000D03*
X196140000Y-122210000D03*
X193600000Y-119670000D03*
X193600000Y-122210000D03*
X191060000Y-119670000D03*
X191060000Y-122210000D03*
X188520000Y-119670000D03*
X188520000Y-122210000D03*
X185980000Y-119670000D03*
X185980000Y-122210000D03*
X183440000Y-119670000D03*
X183440000Y-122210000D03*
X180900000Y-119670000D03*
X180900000Y-122210000D03*
X178360000Y-119670000D03*
X178360000Y-122210000D03*
D18*
X302460000Y-97526000D03*
X244460000Y-146526000D03*
X244460000Y-97526000D03*
X302460000Y-146526000D03*
D13*
X249337870Y-145240204D03*
D14*
X249337870Y-147780204D03*
X251877870Y-145240204D03*
X251877870Y-147780204D03*
X254417870Y-145240204D03*
X254417870Y-147780204D03*
X256957870Y-145240204D03*
X256957870Y-147780204D03*
X259497870Y-145240204D03*
X259497870Y-147780204D03*
X262037870Y-145240204D03*
X262037870Y-147780204D03*
X264577870Y-145240204D03*
X264577870Y-147780204D03*
X267117870Y-145240204D03*
X267117870Y-147780204D03*
X269657870Y-145240204D03*
X269657870Y-147780204D03*
X272197870Y-145240204D03*
X272197870Y-147780204D03*
X274737870Y-145240204D03*
X274737870Y-147780204D03*
X277277870Y-145240204D03*
X277277870Y-147780204D03*
X279817870Y-145240204D03*
X279817870Y-147780204D03*
X282357870Y-145240204D03*
X282357870Y-147780204D03*
X284897870Y-145240204D03*
X284897870Y-147780204D03*
X287437870Y-145240204D03*
X287437870Y-147780204D03*
X289977870Y-145240204D03*
X289977870Y-147780204D03*
X292517870Y-145240204D03*
X292517870Y-147780204D03*
X295057870Y-145240204D03*
X295057870Y-147780204D03*
X297597870Y-145240204D03*
X297597870Y-147780204D03*
D11*
X204780000Y-131950000D03*
X209780000Y-131950000D03*
D19*
X212980000Y-138950000D03*
X201580000Y-138950000D03*
D11*
X204780000Y-146450000D03*
X209780000Y-146450000D03*
X207280000Y-146450000D03*
M02*
