M48
;DRILL file {KiCad (5.0.1-3-g963ef8bb5)} date Sunday, March 17, 2019 at 12:55:35 AM
;FORMAT={-:-/ absolute / inch / decimal}
FMAT,2
INCH,TZ
T1C0.0130
T2C0.0394
T3C0.0433
T4C0.0709
%
G90
G05
M72
T1
X4.4091Y-6.0225
X4.4597Y-7.1053
X4.4984Y-3.7983
X4.5267Y-6.6982
X4.5362Y-5.9236
X4.5426Y-4.9029
X4.5567Y-7.6733
X4.5834Y-6.292
X4.6023Y-5.5647
X4.6495Y-4.0628
X4.659Y-7.4255
X4.67Y-6.05
X4.6775Y-6.5425
X4.77Y-5.9275
X4.8839Y-4.9029
X4.8951Y-6.9626
X4.94Y-6.0425
X4.9475Y-6.305
X4.9507Y-7.681
X4.955Y-6.7125
X4.9775Y-6.46
X5.084Y-4.0723
X5.084Y-5.6214
X5.085Y-6.635
X5.1029Y-5.3285
X5.1174Y-4.7323
X5.1353Y-4.9568
X5.1501Y-3.8267
X5.1974Y-7.4538
X5.2Y-6.005
X5.2446Y-6.3203
X5.3601Y-7.681
X5.435Y-6.0625
X5.4524Y-6.9815
X5.4713Y-4.6485
X5.4975Y-7.2275
X5.5324Y-5.5671
X5.5628Y-5.2736
X5.5628Y-6.3868
X5.6068Y-4.207
X5.6158Y-4.4584
X5.6768Y-7.6733
X5.6831Y-4.9927
X5.74Y-7.02
X5.767Y-6.725
X5.783Y-7.4538
X5.7925Y-7.2225
X5.8158Y-6.2654
X5.8268Y-4.6604
X5.8425Y-6.075
X5.8625Y-5.6775
X5.9225Y-6.86
X5.9271Y-5.2533
X5.9271Y-5.5266
X5.9391Y-4.2159
X5.94Y-6.5275
X5.9525Y-4.8725
X5.9935Y-7.7119
X6.04Y-6.42
X6.04Y-6.46
X6.0425Y-5.7475
X6.0475Y-6.66
X6.0664Y-7.161
X6.07Y-6.38
X6.0775Y-6.97
X6.08Y-6.49
X6.0917Y-4.2968
X6.125Y-5.935
X6.1425Y-6.0625
X6.1703Y-7.0382
X6.186Y-5.0286
X6.2399Y-4.6604
X6.2458Y-7.4538
X6.2475Y-6.87
X6.2725Y-6.655
X6.3016Y-5.2635
X6.3232Y-6.2708
X6.325Y-6.5975
X6.35Y-6.715
X6.372Y-7.681
X6.405Y-6.45
X6.435Y-4.8625
X6.44Y-6.0625
X6.4837Y-5.5468
X6.5103Y-6.7171
X6.5445Y-4.3324
X6.5546Y-3.796
X6.5576Y-6.991
X6.5675Y-5.935
X6.5767Y-4.6021
X6.6055Y-6.0985
X6.6175Y-6.275
X6.6213Y-7.6926
X6.6325Y-6.655
X6.7725Y-5.0125
X6.785Y-5.97
X6.8177Y-5.6683
X6.8191Y-4.5213
X6.8278Y-5.2938
X6.8409Y-7.4349
X6.8598Y-6.292
X6.8675Y-6.445
X6.889Y-7.6985
X6.8925Y-6.7575
X6.9425Y-6.0625
X7.0487Y-7.0004
X7.0796Y-4.3776
X7.1Y-5.675
X7.1Y-5.93
X7.1054Y-6.7643
X7.15Y-6.25
X7.15Y-6.3
X7.15Y-6.35
X7.1675Y-5.0125
X7.175Y-6.4
X7.2233Y-4.5123
X7.2428Y-5.5873
X7.2637Y-7.7104
X7.2731Y-5.2736
X7.2771Y-3.8747
X7.325Y-6.0575
X7.325Y-6.25
X7.325Y-6.4
X7.35Y-6.3
X7.35Y-6.35
X7.3604Y-7.4538
X7.3642Y-7.1661
X7.3946Y-4.302
X7.415Y-6.7975
X7.425Y-5.94
X7.5196Y-3.8747
X7.535Y-6.365
X7.6438Y-7.0004
X7.6453Y-4.3866
X7.655Y-4.9275
X7.655Y-5.74
X7.6678Y-5.2736
X7.69Y-4.5375
X7.69Y-6.63
X7.7083Y-5.4659
X7.7098Y-7.6866
X7.7275Y-7.27
X7.7375Y-6.085
X7.755Y-4.2925
X7.7775Y-6.1975
X7.835Y-5.905
X7.84Y-6.06
X7.9177Y-7.4633
X7.95Y-4.9225
X7.96Y-4.52
X7.9714Y-6.9434
X7.975Y-7.27
X7.995Y-6.729
X8.0046Y-3.8927
X8.0046Y-4.3507
X8.0975Y-6.2625
X8.12Y-4.9225
X8.1525Y-6.535
X8.1679Y-7.6926
X8.2125Y-7.4225
X8.2375Y-6.6925
X8.2625Y-6.3775
X8.2625Y-6.42
X8.2625Y-6.4675
X8.2625Y-6.525
X8.2725Y-6.5775
X8.2919Y-4.5213
X8.295Y-4.28
X8.3Y-4.9745
X8.3357Y-7.0143
X8.3368Y-3.8657
X8.3459Y-7.1762
X8.371Y-6.224
X8.3995Y-4.9438
X8.4225Y-5.252
X8.4625Y-6.35
X8.475Y-7.4538
X8.535Y-4.5125
X8.5485Y-7.6807
X8.5751Y-5.0806
X8.5883Y-3.8927
X8.64Y-6.023
X8.7395Y-6.3959
X8.7405Y-5.2129
X8.749Y-7.0382
X8.75Y-7.4275
X8.7679Y-3.8927
X8.7859Y-4.2429
X8.7867Y-6.3109
X8.8114Y-6.569
X8.8458Y-5.4172
X8.8854Y-5.4827
X8.9233Y-7.6747
X8.93Y-5.618
X8.9531Y-5.8909
X8.9662Y-6.5848
X8.9834Y-4.2878
X8.9834Y-6.4374
X9.0134Y-7.4444
X9.0424Y-5.289
X9.065Y-6.1625
X9.115Y-7.1964
X9.1375Y-6.635
X9.2Y-6.065
X9.2326Y-7.6807
X9.2349Y-5.132
X9.2968Y-6.991
X9.3275Y-7.4275
X9.3579Y-7.1964
X9.3696Y-4.2968
X9.3775Y-5.8675
X9.382Y-5.0839
X9.3853Y-4.8217
X9.565Y-6.5825
X9.575Y-5.45
X9.5851Y-4.4854
X9.5896Y-7.4822
X9.5954Y-7.6688
X9.6412Y-7.1863
X9.6716Y-6.9738
X9.7Y-5.3
X9.752Y-5.073
X9.7557Y-4.4943
X9.7647Y-4.3507
X9.7675Y-6.62
X9.7737Y-4.2429
X9.805Y-5.162
X9.81Y-5.265
X9.8545Y-4.7548
X9.86Y-7.4425
X9.8625Y-7.6539
X9.863Y-5.385
X9.874Y-7.1661
X9.92Y-6.5475
X9.9264Y-4.3237
X9.9623Y-4.8536
X10.021Y-5.073
X10.036Y-4.428
X10.0375Y-5.0122
X10.0425Y-5.9625
X10.052Y-5.125
X10.0525Y-6.04
X10.0623Y-5.2104
X10.091Y-5.619
X10.1148Y-7.0186
X10.1148Y-7.1327
X10.123Y-5.327
X10.128Y-7.4916
X10.13Y-5.93
X10.1425Y-6.0125
X10.1564Y-3.8505
X10.19Y-5.6
X10.1975Y-5.975
X10.2617Y-4.4613
X10.2714Y-7.6463
X10.2923Y-4.1546
X10.3649Y-4.6517
X10.3825Y-7.4675
X10.3875Y-6.085
X10.3975Y-5.578
X10.3975Y-5.88
X10.415Y-6.2975
X10.4208Y-7.0193
X10.43Y-5.9325
X10.433Y-4.829
X10.464Y-6.643
X10.4681Y-5.1353
X10.4857Y-5.0797
X10.49Y-6.2025
X10.491Y-5.3546
X10.5252Y-5.0475
X10.5475Y-5.955
X10.5623Y-5.1278
X10.5666Y-5.6666
X10.58Y-4.774
X10.5848Y-5.481
X10.6122Y-7.6463
X10.6305Y-4.3591
X10.6327Y-4.5716
X10.634Y-4.8287
X10.6375Y-6.1975
X10.641Y-6.047
X10.643Y-6.293
X10.644Y-4.6995
X10.645Y-6.343
X10.646Y-6.392
X10.6475Y-5.1275
X10.6624Y-4.1757
X10.675Y-4.677
X10.675Y-5.09
X10.6775Y-5.7675
X10.6853Y-7.4444
X10.686Y-3.873
X10.716Y-5.208
X10.717Y-4.703
X10.7325Y-5.875
X10.741Y-4.728
X10.75Y-5.265
X10.766Y-5.6175
X10.78Y-4.711
X10.782Y-4.5413
X10.785Y-5.295
X10.8042Y-4.6782
X10.815Y-6.045
X10.8225Y-5.3425
X10.829Y-4.708
X10.847Y-5.27
X10.8527Y-4.5575
X10.866Y-5.6265
X10.8675Y-4.7305
X10.87Y-4.6015
X10.87Y-4.6345
X10.87Y-4.6675
X10.8709Y-4.3789
X10.897Y-4.7501
X10.9149Y-3.8909
X10.9156Y-5.238
X10.9225Y-6.0325
X10.9346Y-5.2869
X10.9366Y-7.0547
X10.9417Y-4.4385
X10.95Y-7.455
X10.966Y-5.6265
X10.9696Y-5.24
X10.9823Y-6.8132
X11.005Y-6.34
X11.0059Y-7.6917
X11.0097Y-5.5836
X11.0101Y-5.3786
X11.0211Y-7.2222
X11.0225Y-6.0325
X11.0257Y-4.3206
X11.05Y-4.725
X11.0604Y-5.2779
X11.0654Y-5.222
X11.0659Y-5.6868
X11.0844Y-4.5701
X11.0956Y-4.6175
X11.1209Y-4.4544
X11.1725Y-6.1175
X11.1782Y-5.1791
X11.1795Y-6.3362
X11.1801Y-6.5861
X11.214Y-5.875
X11.22Y-7.4393
X11.2331Y-7.2147
X11.25Y-7.63
X11.2661Y-5.8838
X11.269Y-4.9025
X11.2694Y-5.4661
X11.2785Y-4.241
X11.304Y-5.4435
X11.3391Y-6.7452
X11.3399Y-5.4188
X11.3536Y-4.745
X11.3555Y-4.6332
X11.3593Y-3.8505
X11.3681Y-5.8837
X11.3718Y-6.3261
X11.4073Y-6.624
X11.4155Y-5.874
X11.4393Y-4.5047
X11.4669Y-5.8807
X11.467Y-4.066
X11.5073Y-5.3407
X11.51Y-7.455
X11.5188Y-7.6578
X11.5236Y-7.0244
X11.5253Y-4.3039
X11.5875Y-6.245
X11.6151Y-4.9996
X11.6496Y-6.7527
X11.6557Y-5.5005
X11.6975Y-6.5575
X11.7273Y-4.6001
X11.765Y-7.625
X11.775Y-6.645
X11.775Y-7.2775
X11.7766Y-7.4393
X11.7859Y-6.3287
X11.8036Y-4.1602
X11.8575Y-4.8335
X11.8709Y-5.2554
X11.885Y-7.265
X11.905Y-6.0075
X11.9075Y-7.0175
X11.9125Y-6.845
X11.9383Y-4.4116
X11.9753Y-7.6806
X11.9787Y-5.013
X11.9875Y-6.245
X11.9903Y-6.359
X11.9979Y-6.624
T2
X7.022Y-4.7114
X7.022Y-4.8114
X7.122Y-4.7114
X7.122Y-4.8114
X7.222Y-4.7114
X7.222Y-4.8114
X7.322Y-4.7114
X7.322Y-4.8114
X7.422Y-4.7114
X7.422Y-4.8114
X7.522Y-4.7114
X7.522Y-4.8114
X7.622Y-4.7114
X7.622Y-4.8114
X7.722Y-4.7114
X7.722Y-4.8114
X7.822Y-4.7114
X7.822Y-4.8114
X7.922Y-4.7114
X7.922Y-4.8114
X8.022Y-4.7114
X8.022Y-4.8114
X8.122Y-4.7114
X8.122Y-4.8114
X8.222Y-4.7114
X8.222Y-4.8114
X8.322Y-4.7114
X8.322Y-4.8114
X8.422Y-4.7114
X8.422Y-4.8114
X8.522Y-4.7114
X8.522Y-4.8114
X8.622Y-4.7114
X8.622Y-4.8114
X8.722Y-4.7114
X8.722Y-4.8114
X8.822Y-4.7114
X8.822Y-4.8114
X8.922Y-4.7114
X8.922Y-4.8114
X5.4Y-5.75
X5.5476Y-5.75
X5.6953Y-5.75
X11.314Y-6.055
X11.414Y-6.055
X11.514Y-6.055
X11.614Y-6.055
X11.714Y-6.055
X4.55Y-4.5
X4.6976Y-4.5
X4.8453Y-4.5
X8.0622Y-5.1949
X8.0622Y-5.7657
X8.1606Y-5.7657
X8.2591Y-5.1949
X8.2591Y-5.7657
X9.8165Y-5.7181
X9.8165Y-5.8181
X9.9165Y-5.7181
X9.9165Y-5.8181
X10.0165Y-5.7181
X10.0165Y-5.8181
X10.1165Y-5.7181
X10.1165Y-5.8181
X10.2165Y-5.7181
X10.2165Y-5.8181
X10.3165Y-5.7181
X10.3165Y-5.8181
X10.4165Y-5.7181
X10.4165Y-5.8181
X10.5165Y-5.7181
X10.5165Y-5.8181
X10.6165Y-5.7181
X10.6165Y-5.8181
X10.7165Y-5.7181
X10.7165Y-5.8181
X10.8165Y-5.7181
X10.8165Y-5.8181
X10.9165Y-5.7181
X10.9165Y-5.8181
X11.0165Y-5.7181
X11.0165Y-5.8181
X11.1165Y-5.7181
X11.1165Y-5.8181
X11.2165Y-5.7181
X11.2165Y-5.8181
X11.3165Y-5.7181
X11.3165Y-5.8181
X11.4165Y-5.7181
X11.4165Y-5.8181
X11.5165Y-5.7181
X11.5165Y-5.8181
X11.6165Y-5.7181
X11.6165Y-5.8181
X11.7165Y-5.7181
X11.7165Y-5.8181
X6.25Y-5.75
X6.3976Y-5.75
X6.5453Y-5.75
X4.5472Y-5.7461
X4.6949Y-5.7461
X4.8425Y-5.7461
X7.1Y-5.75
X7.2476Y-5.75
X7.3953Y-5.75
X5.5465Y-3.8787
X5.6465Y-3.8787
X5.7465Y-3.8787
X5.8465Y-3.8787
X5.9465Y-3.8787
X6.0465Y-3.8787
X6.1465Y-3.8787
T3
X9.601Y-6.245
X9.601Y-6.445
X9.801Y-6.245
X9.801Y-6.445
T4
X5.3429Y-5.4026G85X5.3429Y-5.4419
G05
X5.7524Y-5.4026G85X5.7524Y-5.4419
G05
X4.4929Y-4.1526G85X4.4929Y-4.1919
G05
X4.9024Y-4.1526G85X4.9024Y-4.1919
G05
X7.9362Y-5.4547G85X7.9362Y-5.4862
G05
X8.385Y-5.4547G85X8.385Y-5.4862
G05
X6.1929Y-5.4026G85X6.1929Y-5.4419
G05
X6.6024Y-5.4026G85X6.6024Y-5.4419
G05
X4.4902Y-5.3986G85X4.4902Y-5.438
G05
X4.8996Y-5.3986G85X4.8996Y-5.438
G05
X7.0429Y-5.4026G85X7.0429Y-5.4419
G05
X7.4524Y-5.4026G85X7.4524Y-5.4419
G05
T0
M30
