G04 #@! TF.GenerationSoftware,KiCad,Pcbnew,(6.0.1-0)*
G04 #@! TF.CreationDate,2023-10-11T15:07:40-07:00*
G04 #@! TF.ProjectId,synth,73796e74-682e-46b6-9963-61645f706362,rev?*
G04 #@! TF.SameCoordinates,Original*
G04 #@! TF.FileFunction,Soldermask,Top*
G04 #@! TF.FilePolarity,Negative*
%FSLAX46Y46*%
G04 Gerber Fmt 4.6, Leading zero omitted, Abs format (unit mm)*
G04 Created by KiCad (PCBNEW (6.0.1-0)) date 2023-10-11 15:07:40*
%MOMM*%
%LPD*%
G01*
G04 APERTURE LIST*
G04 Aperture macros list*
%AMRoundRect*
0 Rectangle with rounded corners*
0 $1 Rounding radius*
0 $2 $3 $4 $5 $6 $7 $8 $9 X,Y pos of 4 corners*
0 Add a 4 corners polygon primitive as box body*
4,1,4,$2,$3,$4,$5,$6,$7,$8,$9,$2,$3,0*
0 Add four circle primitives for the rounded corners*
1,1,$1+$1,$2,$3*
1,1,$1+$1,$4,$5*
1,1,$1+$1,$6,$7*
1,1,$1+$1,$8,$9*
0 Add four rect primitives between the rounded corners*
20,1,$1+$1,$2,$3,$4,$5,0*
20,1,$1+$1,$4,$5,$6,$7,0*
20,1,$1+$1,$6,$7,$8,$9,0*
20,1,$1+$1,$8,$9,$2,$3,0*%
G04 Aperture macros list end*
%ADD10RoundRect,0.050800X-0.500000X-0.125000X0.500000X-0.125000X0.500000X0.125000X-0.500000X0.125000X0*%
%ADD11RoundRect,0.050800X0.125000X-0.500000X0.125000X0.500000X-0.125000X0.500000X-0.125000X-0.500000X0*%
%ADD12RoundRect,0.050800X-0.600000X-0.450000X0.600000X-0.450000X0.600000X0.450000X-0.600000X0.450000X0*%
%ADD13RoundRect,0.050800X0.750000X0.300000X-0.750000X0.300000X-0.750000X-0.300000X0.750000X-0.300000X0*%
%ADD14RoundRect,0.050800X0.600000X0.450000X-0.600000X0.450000X-0.600000X-0.450000X0.600000X-0.450000X0*%
%ADD15RoundRect,0.050800X0.950000X0.400000X-0.950000X0.400000X-0.950000X-0.400000X0.950000X-0.400000X0*%
%ADD16RoundRect,0.050800X0.450000X-0.600000X0.450000X0.600000X-0.450000X0.600000X-0.450000X-0.600000X0*%
%ADD17RoundRect,0.050800X-0.775000X-0.650000X0.775000X-0.650000X0.775000X0.650000X-0.775000X0.650000X0*%
%ADD18RoundRect,0.050800X-1.000000X-1.000000X1.000000X-1.000000X1.000000X1.000000X-1.000000X1.000000X0*%
%ADD19C,2.101600*%
%ADD20RoundRect,0.050800X-1.400000X-1.900000X1.400000X-1.900000X1.400000X1.900000X-1.400000X1.900000X0*%
%ADD21RoundRect,0.050800X0.850000X-0.850000X0.850000X0.850000X-0.850000X0.850000X-0.850000X-0.850000X0*%
%ADD22O,1.801600X1.801600*%
%ADD23RoundRect,0.050800X-1.050000X-1.050000X1.050000X-1.050000X1.050000X1.050000X-1.050000X1.050000X0*%
%ADD24C,2.201600*%
%ADD25RoundRect,0.050800X0.375000X-0.600000X0.375000X0.600000X-0.375000X0.600000X-0.375000X-0.600000X0*%
%ADD26RoundRect,0.050800X-0.850000X0.850000X-0.850000X-0.850000X0.850000X-0.850000X0.850000X0.850000X0*%
%ADD27RoundRect,0.050800X-0.375000X0.600000X-0.375000X-0.600000X0.375000X-0.600000X0.375000X0.600000X0*%
%ADD28RoundRect,0.050800X-0.450000X0.600000X-0.450000X-0.600000X0.450000X-0.600000X0.450000X0.600000X0*%
%ADD29C,6.301600*%
%ADD30RoundRect,0.050800X-0.950000X-0.400000X0.950000X-0.400000X0.950000X0.400000X-0.950000X0.400000X0*%
%ADD31RoundRect,0.050800X-1.400000X-1.800000X1.400000X-1.800000X1.400000X1.800000X-1.400000X1.800000X0*%
%ADD32RoundRect,0.050800X0.900000X0.600000X-0.900000X0.600000X-0.900000X-0.600000X0.900000X-0.600000X0*%
G04 APERTURE END LIST*
D10*
X266932000Y-115081000D03*
X266932000Y-115581000D03*
X266932000Y-116081000D03*
X266932000Y-116581000D03*
X266932000Y-117081000D03*
X266932000Y-117581000D03*
X266932000Y-118081000D03*
X266932000Y-118581000D03*
X266932000Y-119081000D03*
X266932000Y-119581000D03*
X266932000Y-120081000D03*
X266932000Y-120581000D03*
X266932000Y-121081000D03*
X266932000Y-121581000D03*
X266932000Y-122081000D03*
X266932000Y-122581000D03*
D11*
X268882000Y-124531000D03*
X269382000Y-124531000D03*
X269882000Y-124531000D03*
X270382000Y-124531000D03*
X270882000Y-124531000D03*
X271382000Y-124531000D03*
X271882000Y-124531000D03*
X272382000Y-124531000D03*
X272882000Y-124531000D03*
X273382000Y-124531000D03*
X273882000Y-124531000D03*
X274382000Y-124531000D03*
X274882000Y-124531000D03*
X275382000Y-124531000D03*
X275882000Y-124531000D03*
X276382000Y-124531000D03*
D10*
X278332000Y-122581000D03*
X278332000Y-122081000D03*
X278332000Y-121581000D03*
X278332000Y-121081000D03*
X278332000Y-120581000D03*
X278332000Y-120081000D03*
X278332000Y-119581000D03*
X278332000Y-119081000D03*
X278332000Y-118581000D03*
X278332000Y-118081000D03*
X278332000Y-117581000D03*
X278332000Y-117081000D03*
X278332000Y-116581000D03*
X278332000Y-116081000D03*
X278332000Y-115581000D03*
X278332000Y-115081000D03*
D11*
X276382000Y-113131000D03*
X275882000Y-113131000D03*
X275382000Y-113131000D03*
X274882000Y-113131000D03*
X274382000Y-113131000D03*
X273882000Y-113131000D03*
X273382000Y-113131000D03*
X272882000Y-113131000D03*
X272382000Y-113131000D03*
X271882000Y-113131000D03*
X271382000Y-113131000D03*
X270882000Y-113131000D03*
X270382000Y-113131000D03*
X269882000Y-113131000D03*
X269382000Y-113131000D03*
X268882000Y-113131000D03*
D12*
X209826500Y-150050500D03*
X212026500Y-150050500D03*
D13*
X275584000Y-168732200D03*
X275584000Y-167462200D03*
X275584000Y-166192200D03*
X275584000Y-164922200D03*
X275584000Y-163652200D03*
X275584000Y-162382200D03*
X275584000Y-161112200D03*
X275584000Y-159842200D03*
X268484000Y-159842200D03*
X268484000Y-161112200D03*
X268484000Y-162382200D03*
X268484000Y-163652200D03*
X268484000Y-164922200D03*
X268484000Y-166192200D03*
X268484000Y-167462200D03*
X268484000Y-168732200D03*
D12*
X284789700Y-120523000D03*
X286989700Y-120523000D03*
D13*
X211728400Y-170916600D03*
X211728400Y-169646600D03*
X211728400Y-168376600D03*
X211728400Y-167106600D03*
X211728400Y-165836600D03*
X211728400Y-164566600D03*
X211728400Y-163296600D03*
X211728400Y-162026600D03*
X204628400Y-162026600D03*
X204628400Y-163296600D03*
X204628400Y-164566600D03*
X204628400Y-165836600D03*
X204628400Y-167106600D03*
X204628400Y-168376600D03*
X204628400Y-169646600D03*
X204628400Y-170916600D03*
D14*
X259588000Y-110617000D03*
X257388000Y-110617000D03*
D15*
X261532500Y-156207500D03*
X261532500Y-154307500D03*
X258532500Y-155257500D03*
D16*
X254762000Y-158623000D03*
X254762000Y-156423000D03*
X237744000Y-163680500D03*
X237744000Y-161480500D03*
D15*
X261532500Y-161351000D03*
X261532500Y-159451000D03*
X258532500Y-160401000D03*
D17*
X135480000Y-186700000D03*
X127520000Y-186700000D03*
X127520000Y-191200000D03*
X135480000Y-191200000D03*
X187980000Y-158200000D03*
X180020000Y-158200000D03*
X180020000Y-162700000D03*
X187980000Y-162700000D03*
X169520000Y-186700000D03*
X177480000Y-186700000D03*
X177480000Y-191200000D03*
X169520000Y-191200000D03*
X184480000Y-174700000D03*
X176520000Y-174700000D03*
X176520000Y-179200000D03*
X184480000Y-179200000D03*
X198480000Y-174700000D03*
X190520000Y-174700000D03*
X190520000Y-179200000D03*
X198480000Y-179200000D03*
X205480000Y-186700000D03*
X197520000Y-186700000D03*
X205480000Y-191200000D03*
X197520000Y-191200000D03*
X211520000Y-186700000D03*
X219480000Y-186700000D03*
X211520000Y-191200000D03*
X219480000Y-191200000D03*
X218520000Y-174700000D03*
X226480000Y-174700000D03*
X226480000Y-179200000D03*
X218520000Y-179200000D03*
X233480000Y-186700000D03*
X225520000Y-186700000D03*
X225520000Y-191200000D03*
X233480000Y-191200000D03*
X240480000Y-174700000D03*
X232520000Y-174700000D03*
X232520000Y-179200000D03*
X240480000Y-179200000D03*
X247480000Y-186700000D03*
X239520000Y-186700000D03*
X239520000Y-191200000D03*
X247480000Y-191200000D03*
X261480000Y-186700000D03*
X253520000Y-186700000D03*
X261480000Y-191200000D03*
X253520000Y-191200000D03*
X260520000Y-175700000D03*
X268480000Y-175700000D03*
X260520000Y-180200000D03*
X268480000Y-180200000D03*
X275480000Y-186700000D03*
X267520000Y-186700000D03*
X275480000Y-191200000D03*
X267520000Y-191200000D03*
X274520000Y-175700000D03*
X282480000Y-175700000D03*
X282480000Y-180200000D03*
X274520000Y-180200000D03*
X281520000Y-186700000D03*
X289480000Y-186700000D03*
X289480000Y-191200000D03*
X281520000Y-191200000D03*
X303480000Y-186700000D03*
X295520000Y-186700000D03*
X303480000Y-191200000D03*
X295520000Y-191200000D03*
X113520000Y-157700000D03*
X121480000Y-157700000D03*
X121480000Y-162200000D03*
X113520000Y-162200000D03*
X155520000Y-186700000D03*
X163480000Y-186700000D03*
X155520000Y-191200000D03*
X163480000Y-191200000D03*
X134520000Y-174700000D03*
X142480000Y-174700000D03*
X142480000Y-179200000D03*
X134520000Y-179200000D03*
X288520000Y-175700000D03*
X296480000Y-175700000D03*
X288520000Y-180200000D03*
X296480000Y-180200000D03*
D18*
X180340000Y-146050000D03*
D19*
X184090000Y-146050000D03*
X187840000Y-146050000D03*
D20*
X178890000Y-137725000D03*
X189290000Y-137725000D03*
D18*
X158750000Y-146050000D03*
D19*
X162500000Y-146050000D03*
X166250000Y-146050000D03*
D20*
X157300000Y-137725000D03*
X167700000Y-137725000D03*
D18*
X137160000Y-146050000D03*
D19*
X140910000Y-146050000D03*
X144660000Y-146050000D03*
D20*
X146110000Y-137725000D03*
X135710000Y-137725000D03*
D18*
X115500000Y-145950000D03*
D19*
X119250000Y-145950000D03*
X123000000Y-145950000D03*
D20*
X124450000Y-137625000D03*
X114050000Y-137625000D03*
D17*
X162520000Y-174700000D03*
X170480000Y-174700000D03*
X162520000Y-179200000D03*
X170480000Y-179200000D03*
X149480000Y-186700000D03*
X141520000Y-186700000D03*
X149480000Y-191200000D03*
X141520000Y-191200000D03*
X191480000Y-186700000D03*
X183520000Y-186700000D03*
X183520000Y-191200000D03*
X191480000Y-191200000D03*
X121480000Y-186700000D03*
X113520000Y-186700000D03*
X121480000Y-191200000D03*
X113520000Y-191200000D03*
X120520000Y-174700000D03*
X128480000Y-174700000D03*
X128480000Y-179200000D03*
X120520000Y-179200000D03*
D18*
X115570000Y-114300000D03*
D19*
X119320000Y-114300000D03*
X123070000Y-114300000D03*
D20*
X124520000Y-105975000D03*
X114120000Y-105975000D03*
D13*
X155950000Y-170815000D03*
X155950000Y-169545000D03*
X155950000Y-168275000D03*
X155950000Y-167005000D03*
X155950000Y-165735000D03*
X155950000Y-164465000D03*
X155950000Y-163195000D03*
X155950000Y-161925000D03*
X148850000Y-161925000D03*
X148850000Y-163195000D03*
X148850000Y-164465000D03*
X148850000Y-165735000D03*
X148850000Y-167005000D03*
X148850000Y-168275000D03*
X148850000Y-169545000D03*
X148850000Y-170815000D03*
D21*
X140880000Y-98520000D03*
D22*
X143420000Y-98520000D03*
X145960000Y-98520000D03*
X148500000Y-98520000D03*
X151040000Y-98520000D03*
X153580000Y-98520000D03*
X156120000Y-98520000D03*
D23*
X243865400Y-158623000D03*
D24*
X248945400Y-158623000D03*
X248945400Y-163703000D03*
X243865400Y-163703000D03*
D25*
X262331200Y-108849200D03*
X262331200Y-106949200D03*
D26*
X297535600Y-153797000D03*
D22*
X294995600Y-153797000D03*
X292455600Y-153797000D03*
X289915600Y-153797000D03*
X287375600Y-153797000D03*
D27*
X280543000Y-128031200D03*
X280543000Y-129931200D03*
X277876000Y-127970200D03*
X277876000Y-129870200D03*
D25*
X265256695Y-108818332D03*
X265256695Y-106918332D03*
D12*
X256880000Y-121793000D03*
X259080000Y-121793000D03*
D25*
X268050695Y-108818332D03*
X268050695Y-106918332D03*
D27*
X283210000Y-128031200D03*
X283210000Y-129931200D03*
D16*
X272415000Y-108829200D03*
X272415000Y-106629200D03*
D28*
X275399500Y-106639000D03*
X275399500Y-108839000D03*
D29*
X231500000Y-120950000D03*
X173500000Y-97950000D03*
X173500000Y-120950000D03*
X231500000Y-97950000D03*
D26*
X226620000Y-119670000D03*
D22*
X226620000Y-122210000D03*
X224080000Y-119670000D03*
X224080000Y-122210000D03*
X221540000Y-119670000D03*
X221540000Y-122210000D03*
X219000000Y-119670000D03*
X219000000Y-122210000D03*
X216460000Y-119670000D03*
X216460000Y-122210000D03*
X213920000Y-119670000D03*
X213920000Y-122210000D03*
X211380000Y-119670000D03*
X211380000Y-122210000D03*
X208840000Y-119670000D03*
X208840000Y-122210000D03*
X206300000Y-119670000D03*
X206300000Y-122210000D03*
X203760000Y-119670000D03*
X203760000Y-122210000D03*
X201220000Y-119670000D03*
X201220000Y-122210000D03*
X198680000Y-119670000D03*
X198680000Y-122210000D03*
X196140000Y-119670000D03*
X196140000Y-122210000D03*
X193600000Y-119670000D03*
X193600000Y-122210000D03*
X191060000Y-119670000D03*
X191060000Y-122210000D03*
X188520000Y-119670000D03*
X188520000Y-122210000D03*
X185980000Y-119670000D03*
X185980000Y-122210000D03*
X183440000Y-119670000D03*
X183440000Y-122210000D03*
X180900000Y-119670000D03*
X180900000Y-122210000D03*
X178360000Y-119670000D03*
X178360000Y-122210000D03*
D12*
X284832700Y-117665500D03*
X287032700Y-117665500D03*
D30*
X234847000Y-156466500D03*
X234847000Y-158366500D03*
X237847000Y-157416500D03*
D16*
X254762000Y-163703000D03*
X254762000Y-161503000D03*
D29*
X302460000Y-97526000D03*
X244460000Y-146526000D03*
X244460000Y-97526000D03*
X302460000Y-146526000D03*
D21*
X249337870Y-145240204D03*
D22*
X249337870Y-147780204D03*
X251877870Y-145240204D03*
X251877870Y-147780204D03*
X254417870Y-145240204D03*
X254417870Y-147780204D03*
X256957870Y-145240204D03*
X256957870Y-147780204D03*
X259497870Y-145240204D03*
X259497870Y-147780204D03*
X262037870Y-145240204D03*
X262037870Y-147780204D03*
X264577870Y-145240204D03*
X264577870Y-147780204D03*
X267117870Y-145240204D03*
X267117870Y-147780204D03*
X269657870Y-145240204D03*
X269657870Y-147780204D03*
X272197870Y-145240204D03*
X272197870Y-147780204D03*
X274737870Y-145240204D03*
X274737870Y-147780204D03*
X277277870Y-145240204D03*
X277277870Y-147780204D03*
X279817870Y-145240204D03*
X279817870Y-147780204D03*
X282357870Y-145240204D03*
X282357870Y-147780204D03*
X284897870Y-145240204D03*
X284897870Y-147780204D03*
X287437870Y-145240204D03*
X287437870Y-147780204D03*
X289977870Y-145240204D03*
X289977870Y-147780204D03*
X292517870Y-145240204D03*
X292517870Y-147780204D03*
X295057870Y-145240204D03*
X295057870Y-147780204D03*
X297597870Y-145240204D03*
X297597870Y-147780204D03*
D19*
X204780000Y-131950000D03*
X209780000Y-131950000D03*
D31*
X212980000Y-138950000D03*
X201580000Y-138950000D03*
D19*
X204780000Y-146450000D03*
X209780000Y-146450000D03*
X207280000Y-146450000D03*
D12*
X284810200Y-123126500D03*
X287010200Y-123126500D03*
D14*
X204787500Y-149987000D03*
X202587500Y-149987000D03*
D17*
X129520000Y-157700000D03*
X137480000Y-157700000D03*
X129520000Y-162200000D03*
X137480000Y-162200000D03*
D32*
X259990340Y-115553640D03*
X255990340Y-115553640D03*
X255990340Y-117953640D03*
X259990340Y-117953640D03*
G36*
X276047519Y-123998635D02*
G01*
X276061312Y-124007851D01*
X276062435Y-124006171D01*
X276064229Y-124005286D01*
X276065380Y-124005747D01*
X276082951Y-124020429D01*
X276151669Y-124029056D01*
X276199500Y-124006168D01*
X276201494Y-124006322D01*
X276202026Y-124006861D01*
X276202688Y-124007851D01*
X276216481Y-123998634D01*
X276218477Y-123998503D01*
X276219588Y-124000166D01*
X276219255Y-124001408D01*
X276211952Y-124012339D01*
X276208200Y-124031199D01*
X276208200Y-125030801D01*
X276211952Y-125049661D01*
X276219255Y-125060591D01*
X276219386Y-125062587D01*
X276217723Y-125063698D01*
X276216481Y-125063365D01*
X276202688Y-125054149D01*
X276201565Y-125055829D01*
X276199771Y-125056714D01*
X276198620Y-125056253D01*
X276181049Y-125041571D01*
X276112331Y-125032944D01*
X276064500Y-125055832D01*
X276062506Y-125055678D01*
X276061974Y-125055139D01*
X276061312Y-125054149D01*
X276047519Y-125063366D01*
X276045523Y-125063497D01*
X276044412Y-125061834D01*
X276044745Y-125060592D01*
X276052048Y-125049661D01*
X276055800Y-125030801D01*
X276055800Y-124031199D01*
X276052048Y-124012339D01*
X276044745Y-124001409D01*
X276044614Y-123999413D01*
X276046277Y-123998302D01*
X276047519Y-123998635D01*
G37*
G36*
X269047519Y-123998635D02*
G01*
X269061312Y-124007851D01*
X269062435Y-124006171D01*
X269064229Y-124005286D01*
X269065380Y-124005747D01*
X269082951Y-124020429D01*
X269151669Y-124029056D01*
X269199500Y-124006168D01*
X269201494Y-124006322D01*
X269202026Y-124006861D01*
X269202688Y-124007851D01*
X269216481Y-123998634D01*
X269218477Y-123998503D01*
X269219588Y-124000166D01*
X269219255Y-124001408D01*
X269211952Y-124012339D01*
X269208200Y-124031199D01*
X269208200Y-125030801D01*
X269211952Y-125049661D01*
X269219255Y-125060591D01*
X269219386Y-125062587D01*
X269217723Y-125063698D01*
X269216481Y-125063365D01*
X269202688Y-125054149D01*
X269201565Y-125055829D01*
X269199771Y-125056714D01*
X269198620Y-125056253D01*
X269181049Y-125041571D01*
X269112331Y-125032944D01*
X269064500Y-125055832D01*
X269062506Y-125055678D01*
X269061974Y-125055139D01*
X269061312Y-125054149D01*
X269047519Y-125063366D01*
X269045523Y-125063497D01*
X269044412Y-125061834D01*
X269044745Y-125060592D01*
X269052048Y-125049661D01*
X269055800Y-125030801D01*
X269055800Y-124031199D01*
X269052048Y-124012339D01*
X269044745Y-124001409D01*
X269044614Y-123999413D01*
X269046277Y-123998302D01*
X269047519Y-123998635D01*
G37*
G36*
X272547519Y-123998635D02*
G01*
X272561312Y-124007851D01*
X272562435Y-124006171D01*
X272564229Y-124005286D01*
X272565380Y-124005747D01*
X272582951Y-124020429D01*
X272651669Y-124029056D01*
X272699500Y-124006168D01*
X272701494Y-124006322D01*
X272702026Y-124006861D01*
X272702688Y-124007851D01*
X272716481Y-123998634D01*
X272718477Y-123998503D01*
X272719588Y-124000166D01*
X272719255Y-124001408D01*
X272711952Y-124012339D01*
X272708200Y-124031199D01*
X272708200Y-125030801D01*
X272711952Y-125049661D01*
X272719255Y-125060591D01*
X272719386Y-125062587D01*
X272717723Y-125063698D01*
X272716481Y-125063365D01*
X272702688Y-125054149D01*
X272701565Y-125055829D01*
X272699771Y-125056714D01*
X272698620Y-125056253D01*
X272681049Y-125041571D01*
X272612331Y-125032944D01*
X272564500Y-125055832D01*
X272562506Y-125055678D01*
X272561974Y-125055139D01*
X272561312Y-125054149D01*
X272547519Y-125063366D01*
X272545523Y-125063497D01*
X272544412Y-125061834D01*
X272544745Y-125060592D01*
X272552048Y-125049661D01*
X272555800Y-125030801D01*
X272555800Y-124031199D01*
X272552048Y-124012339D01*
X272544745Y-124001409D01*
X272544614Y-123999413D01*
X272546277Y-123998302D01*
X272547519Y-123998635D01*
G37*
G36*
X270047519Y-123998635D02*
G01*
X270061312Y-124007851D01*
X270062435Y-124006171D01*
X270064229Y-124005286D01*
X270065380Y-124005747D01*
X270082951Y-124020429D01*
X270151669Y-124029056D01*
X270199500Y-124006168D01*
X270201494Y-124006322D01*
X270202026Y-124006861D01*
X270202688Y-124007851D01*
X270216481Y-123998634D01*
X270218477Y-123998503D01*
X270219588Y-124000166D01*
X270219255Y-124001408D01*
X270211952Y-124012339D01*
X270208200Y-124031199D01*
X270208200Y-125030801D01*
X270211952Y-125049661D01*
X270219255Y-125060591D01*
X270219386Y-125062587D01*
X270217723Y-125063698D01*
X270216481Y-125063365D01*
X270202688Y-125054149D01*
X270201565Y-125055829D01*
X270199771Y-125056714D01*
X270198620Y-125056253D01*
X270181049Y-125041571D01*
X270112331Y-125032944D01*
X270064500Y-125055832D01*
X270062506Y-125055678D01*
X270061974Y-125055139D01*
X270061312Y-125054149D01*
X270047519Y-125063366D01*
X270045523Y-125063497D01*
X270044412Y-125061834D01*
X270044745Y-125060592D01*
X270052048Y-125049661D01*
X270055800Y-125030801D01*
X270055800Y-124031199D01*
X270052048Y-124012339D01*
X270044745Y-124001409D01*
X270044614Y-123999413D01*
X270046277Y-123998302D01*
X270047519Y-123998635D01*
G37*
G36*
X271547519Y-123998635D02*
G01*
X271561312Y-124007851D01*
X271562435Y-124006171D01*
X271564229Y-124005286D01*
X271565380Y-124005747D01*
X271582951Y-124020429D01*
X271651669Y-124029056D01*
X271699500Y-124006168D01*
X271701494Y-124006322D01*
X271702026Y-124006861D01*
X271702688Y-124007851D01*
X271716481Y-123998634D01*
X271718477Y-123998503D01*
X271719588Y-124000166D01*
X271719255Y-124001408D01*
X271711952Y-124012339D01*
X271708200Y-124031199D01*
X271708200Y-125030801D01*
X271711952Y-125049661D01*
X271719255Y-125060591D01*
X271719386Y-125062587D01*
X271717723Y-125063698D01*
X271716481Y-125063365D01*
X271702688Y-125054149D01*
X271701565Y-125055829D01*
X271699771Y-125056714D01*
X271698620Y-125056253D01*
X271681049Y-125041571D01*
X271612331Y-125032944D01*
X271564500Y-125055832D01*
X271562506Y-125055678D01*
X271561974Y-125055139D01*
X271561312Y-125054149D01*
X271547519Y-125063366D01*
X271545523Y-125063497D01*
X271544412Y-125061834D01*
X271544745Y-125060592D01*
X271552048Y-125049661D01*
X271555800Y-125030801D01*
X271555800Y-124031199D01*
X271552048Y-124012339D01*
X271544745Y-124001409D01*
X271544614Y-123999413D01*
X271546277Y-123998302D01*
X271547519Y-123998635D01*
G37*
G36*
X269547519Y-123998635D02*
G01*
X269561312Y-124007851D01*
X269562435Y-124006171D01*
X269564229Y-124005286D01*
X269565380Y-124005747D01*
X269582951Y-124020429D01*
X269651669Y-124029056D01*
X269699500Y-124006168D01*
X269701494Y-124006322D01*
X269702026Y-124006861D01*
X269702688Y-124007851D01*
X269716481Y-123998634D01*
X269718477Y-123998503D01*
X269719588Y-124000166D01*
X269719255Y-124001408D01*
X269711952Y-124012339D01*
X269708200Y-124031199D01*
X269708200Y-125030801D01*
X269711952Y-125049661D01*
X269719255Y-125060591D01*
X269719386Y-125062587D01*
X269717723Y-125063698D01*
X269716481Y-125063365D01*
X269702688Y-125054149D01*
X269701565Y-125055829D01*
X269699771Y-125056714D01*
X269698620Y-125056253D01*
X269681049Y-125041571D01*
X269612331Y-125032944D01*
X269564500Y-125055832D01*
X269562506Y-125055678D01*
X269561974Y-125055139D01*
X269561312Y-125054149D01*
X269547519Y-125063366D01*
X269545523Y-125063497D01*
X269544412Y-125061834D01*
X269544745Y-125060592D01*
X269552048Y-125049661D01*
X269555800Y-125030801D01*
X269555800Y-124031199D01*
X269552048Y-124012339D01*
X269544745Y-124001409D01*
X269544614Y-123999413D01*
X269546277Y-123998302D01*
X269547519Y-123998635D01*
G37*
G36*
X274047519Y-123998635D02*
G01*
X274061312Y-124007851D01*
X274062435Y-124006171D01*
X274064229Y-124005286D01*
X274065380Y-124005747D01*
X274082951Y-124020429D01*
X274151669Y-124029056D01*
X274199500Y-124006168D01*
X274201494Y-124006322D01*
X274202026Y-124006861D01*
X274202688Y-124007851D01*
X274216481Y-123998634D01*
X274218477Y-123998503D01*
X274219588Y-124000166D01*
X274219255Y-124001408D01*
X274211952Y-124012339D01*
X274208200Y-124031199D01*
X274208200Y-125030801D01*
X274211952Y-125049661D01*
X274219255Y-125060591D01*
X274219386Y-125062587D01*
X274217723Y-125063698D01*
X274216481Y-125063365D01*
X274202688Y-125054149D01*
X274201565Y-125055829D01*
X274199771Y-125056714D01*
X274198620Y-125056253D01*
X274181049Y-125041571D01*
X274112331Y-125032944D01*
X274064500Y-125055832D01*
X274062506Y-125055678D01*
X274061974Y-125055139D01*
X274061312Y-125054149D01*
X274047519Y-125063366D01*
X274045523Y-125063497D01*
X274044412Y-125061834D01*
X274044745Y-125060592D01*
X274052048Y-125049661D01*
X274055800Y-125030801D01*
X274055800Y-124031199D01*
X274052048Y-124012339D01*
X274044745Y-124001409D01*
X274044614Y-123999413D01*
X274046277Y-123998302D01*
X274047519Y-123998635D01*
G37*
G36*
X273547519Y-123998635D02*
G01*
X273561312Y-124007851D01*
X273562435Y-124006171D01*
X273564229Y-124005286D01*
X273565380Y-124005747D01*
X273582951Y-124020429D01*
X273651669Y-124029056D01*
X273699500Y-124006168D01*
X273701494Y-124006322D01*
X273702026Y-124006861D01*
X273702688Y-124007851D01*
X273716481Y-123998634D01*
X273718477Y-123998503D01*
X273719588Y-124000166D01*
X273719255Y-124001408D01*
X273711952Y-124012339D01*
X273708200Y-124031199D01*
X273708200Y-125030801D01*
X273711952Y-125049661D01*
X273719255Y-125060591D01*
X273719386Y-125062587D01*
X273717723Y-125063698D01*
X273716481Y-125063365D01*
X273702688Y-125054149D01*
X273701565Y-125055829D01*
X273699771Y-125056714D01*
X273698620Y-125056253D01*
X273681049Y-125041571D01*
X273612331Y-125032944D01*
X273564500Y-125055832D01*
X273562506Y-125055678D01*
X273561974Y-125055139D01*
X273561312Y-125054149D01*
X273547519Y-125063366D01*
X273545523Y-125063497D01*
X273544412Y-125061834D01*
X273544745Y-125060592D01*
X273552048Y-125049661D01*
X273555800Y-125030801D01*
X273555800Y-124031199D01*
X273552048Y-124012339D01*
X273544745Y-124001409D01*
X273544614Y-123999413D01*
X273546277Y-123998302D01*
X273547519Y-123998635D01*
G37*
G36*
X274547519Y-123998635D02*
G01*
X274561312Y-124007851D01*
X274562435Y-124006171D01*
X274564229Y-124005286D01*
X274565380Y-124005747D01*
X274582951Y-124020429D01*
X274651669Y-124029056D01*
X274699500Y-124006168D01*
X274701494Y-124006322D01*
X274702026Y-124006861D01*
X274702688Y-124007851D01*
X274716481Y-123998634D01*
X274718477Y-123998503D01*
X274719588Y-124000166D01*
X274719255Y-124001408D01*
X274711952Y-124012339D01*
X274708200Y-124031199D01*
X274708200Y-125030801D01*
X274711952Y-125049661D01*
X274719255Y-125060591D01*
X274719386Y-125062587D01*
X274717723Y-125063698D01*
X274716481Y-125063365D01*
X274702688Y-125054149D01*
X274701565Y-125055829D01*
X274699771Y-125056714D01*
X274698620Y-125056253D01*
X274681049Y-125041571D01*
X274612331Y-125032944D01*
X274564500Y-125055832D01*
X274562506Y-125055678D01*
X274561974Y-125055139D01*
X274561312Y-125054149D01*
X274547519Y-125063366D01*
X274545523Y-125063497D01*
X274544412Y-125061834D01*
X274544745Y-125060592D01*
X274552048Y-125049661D01*
X274555800Y-125030801D01*
X274555800Y-124031199D01*
X274552048Y-124012339D01*
X274544745Y-124001409D01*
X274544614Y-123999413D01*
X274546277Y-123998302D01*
X274547519Y-123998635D01*
G37*
G36*
X275547519Y-123998635D02*
G01*
X275561312Y-124007851D01*
X275562435Y-124006171D01*
X275564229Y-124005286D01*
X275565380Y-124005747D01*
X275582951Y-124020429D01*
X275651669Y-124029056D01*
X275699500Y-124006168D01*
X275701494Y-124006322D01*
X275702026Y-124006861D01*
X275702688Y-124007851D01*
X275716481Y-123998634D01*
X275718477Y-123998503D01*
X275719588Y-124000166D01*
X275719255Y-124001408D01*
X275711952Y-124012339D01*
X275708200Y-124031199D01*
X275708200Y-125030801D01*
X275711952Y-125049661D01*
X275719255Y-125060591D01*
X275719386Y-125062587D01*
X275717723Y-125063698D01*
X275716481Y-125063365D01*
X275702688Y-125054149D01*
X275701565Y-125055829D01*
X275699771Y-125056714D01*
X275698620Y-125056253D01*
X275681049Y-125041571D01*
X275612331Y-125032944D01*
X275564500Y-125055832D01*
X275562506Y-125055678D01*
X275561974Y-125055139D01*
X275561312Y-125054149D01*
X275547519Y-125063366D01*
X275545523Y-125063497D01*
X275544412Y-125061834D01*
X275544745Y-125060592D01*
X275552048Y-125049661D01*
X275555800Y-125030801D01*
X275555800Y-124031199D01*
X275552048Y-124012339D01*
X275544745Y-124001409D01*
X275544614Y-123999413D01*
X275546277Y-123998302D01*
X275547519Y-123998635D01*
G37*
G36*
X270547519Y-123998635D02*
G01*
X270561312Y-124007851D01*
X270562435Y-124006171D01*
X270564229Y-124005286D01*
X270565380Y-124005747D01*
X270582951Y-124020429D01*
X270651669Y-124029056D01*
X270699500Y-124006168D01*
X270701494Y-124006322D01*
X270702026Y-124006861D01*
X270702688Y-124007851D01*
X270716481Y-123998634D01*
X270718477Y-123998503D01*
X270719588Y-124000166D01*
X270719255Y-124001408D01*
X270711952Y-124012339D01*
X270708200Y-124031199D01*
X270708200Y-125030801D01*
X270711952Y-125049661D01*
X270719255Y-125060591D01*
X270719386Y-125062587D01*
X270717723Y-125063698D01*
X270716481Y-125063365D01*
X270702688Y-125054149D01*
X270701565Y-125055829D01*
X270699771Y-125056714D01*
X270698620Y-125056253D01*
X270681049Y-125041571D01*
X270612331Y-125032944D01*
X270564500Y-125055832D01*
X270562506Y-125055678D01*
X270561974Y-125055139D01*
X270561312Y-125054149D01*
X270547519Y-125063366D01*
X270545523Y-125063497D01*
X270544412Y-125061834D01*
X270544745Y-125060592D01*
X270552048Y-125049661D01*
X270555800Y-125030801D01*
X270555800Y-124031199D01*
X270552048Y-124012339D01*
X270544745Y-124001409D01*
X270544614Y-123999413D01*
X270546277Y-123998302D01*
X270547519Y-123998635D01*
G37*
G36*
X273047519Y-123998635D02*
G01*
X273061312Y-124007851D01*
X273062435Y-124006171D01*
X273064229Y-124005286D01*
X273065380Y-124005747D01*
X273082951Y-124020429D01*
X273151669Y-124029056D01*
X273199500Y-124006168D01*
X273201494Y-124006322D01*
X273202026Y-124006861D01*
X273202688Y-124007851D01*
X273216481Y-123998634D01*
X273218477Y-123998503D01*
X273219588Y-124000166D01*
X273219255Y-124001408D01*
X273211952Y-124012339D01*
X273208200Y-124031199D01*
X273208200Y-125030801D01*
X273211952Y-125049661D01*
X273219255Y-125060591D01*
X273219386Y-125062587D01*
X273217723Y-125063698D01*
X273216481Y-125063365D01*
X273202688Y-125054149D01*
X273201565Y-125055829D01*
X273199771Y-125056714D01*
X273198620Y-125056253D01*
X273181049Y-125041571D01*
X273112331Y-125032944D01*
X273064500Y-125055832D01*
X273062506Y-125055678D01*
X273061974Y-125055139D01*
X273061312Y-125054149D01*
X273047519Y-125063366D01*
X273045523Y-125063497D01*
X273044412Y-125061834D01*
X273044745Y-125060592D01*
X273052048Y-125049661D01*
X273055800Y-125030801D01*
X273055800Y-124031199D01*
X273052048Y-124012339D01*
X273044745Y-124001409D01*
X273044614Y-123999413D01*
X273046277Y-123998302D01*
X273047519Y-123998635D01*
G37*
G36*
X271047519Y-123998635D02*
G01*
X271061312Y-124007851D01*
X271062435Y-124006171D01*
X271064229Y-124005286D01*
X271065380Y-124005747D01*
X271082951Y-124020429D01*
X271151669Y-124029056D01*
X271199500Y-124006168D01*
X271201494Y-124006322D01*
X271202026Y-124006861D01*
X271202688Y-124007851D01*
X271216481Y-123998634D01*
X271218477Y-123998503D01*
X271219588Y-124000166D01*
X271219255Y-124001408D01*
X271211952Y-124012339D01*
X271208200Y-124031199D01*
X271208200Y-125030801D01*
X271211952Y-125049661D01*
X271219255Y-125060591D01*
X271219386Y-125062587D01*
X271217723Y-125063698D01*
X271216481Y-125063365D01*
X271202688Y-125054149D01*
X271201565Y-125055829D01*
X271199771Y-125056714D01*
X271198620Y-125056253D01*
X271181049Y-125041571D01*
X271112331Y-125032944D01*
X271064500Y-125055832D01*
X271062506Y-125055678D01*
X271061974Y-125055139D01*
X271061312Y-125054149D01*
X271047519Y-125063366D01*
X271045523Y-125063497D01*
X271044412Y-125061834D01*
X271044745Y-125060592D01*
X271052048Y-125049661D01*
X271055800Y-125030801D01*
X271055800Y-124031199D01*
X271052048Y-124012339D01*
X271044745Y-124001409D01*
X271044614Y-123999413D01*
X271046277Y-123998302D01*
X271047519Y-123998635D01*
G37*
G36*
X272047519Y-123998635D02*
G01*
X272061312Y-124007851D01*
X272062435Y-124006171D01*
X272064229Y-124005286D01*
X272065380Y-124005747D01*
X272082951Y-124020429D01*
X272151669Y-124029056D01*
X272199500Y-124006168D01*
X272201494Y-124006322D01*
X272202026Y-124006861D01*
X272202688Y-124007851D01*
X272216481Y-123998634D01*
X272218477Y-123998503D01*
X272219588Y-124000166D01*
X272219255Y-124001408D01*
X272211952Y-124012339D01*
X272208200Y-124031199D01*
X272208200Y-125030801D01*
X272211952Y-125049661D01*
X272219255Y-125060591D01*
X272219386Y-125062587D01*
X272217723Y-125063698D01*
X272216481Y-125063365D01*
X272202688Y-125054149D01*
X272201565Y-125055829D01*
X272199771Y-125056714D01*
X272198620Y-125056253D01*
X272181049Y-125041571D01*
X272112331Y-125032944D01*
X272064500Y-125055832D01*
X272062506Y-125055678D01*
X272061974Y-125055139D01*
X272061312Y-125054149D01*
X272047519Y-125063366D01*
X272045523Y-125063497D01*
X272044412Y-125061834D01*
X272044745Y-125060592D01*
X272052048Y-125049661D01*
X272055800Y-125030801D01*
X272055800Y-124031199D01*
X272052048Y-124012339D01*
X272044745Y-124001409D01*
X272044614Y-123999413D01*
X272046277Y-123998302D01*
X272047519Y-123998635D01*
G37*
G36*
X275047519Y-123998635D02*
G01*
X275061312Y-124007851D01*
X275062435Y-124006171D01*
X275064229Y-124005286D01*
X275065380Y-124005747D01*
X275082951Y-124020429D01*
X275151669Y-124029056D01*
X275199500Y-124006168D01*
X275201494Y-124006322D01*
X275202026Y-124006861D01*
X275202688Y-124007851D01*
X275216481Y-123998634D01*
X275218477Y-123998503D01*
X275219588Y-124000166D01*
X275219255Y-124001408D01*
X275211952Y-124012339D01*
X275208200Y-124031199D01*
X275208200Y-125030801D01*
X275211952Y-125049661D01*
X275219255Y-125060591D01*
X275219386Y-125062587D01*
X275217723Y-125063698D01*
X275216481Y-125063365D01*
X275202688Y-125054149D01*
X275201565Y-125055829D01*
X275199771Y-125056714D01*
X275198620Y-125056253D01*
X275181049Y-125041571D01*
X275112331Y-125032944D01*
X275064500Y-125055832D01*
X275062506Y-125055678D01*
X275061974Y-125055139D01*
X275061312Y-125054149D01*
X275047519Y-125063366D01*
X275045523Y-125063497D01*
X275044412Y-125061834D01*
X275044745Y-125060592D01*
X275052048Y-125049661D01*
X275055800Y-125030801D01*
X275055800Y-124031199D01*
X275052048Y-124012339D01*
X275044745Y-124001409D01*
X275044614Y-123999413D01*
X275046277Y-123998302D01*
X275047519Y-123998635D01*
G37*
G36*
X266402408Y-122243745D02*
G01*
X266413339Y-122251048D01*
X266432199Y-122254800D01*
X267431801Y-122254800D01*
X267450661Y-122251048D01*
X267461591Y-122243745D01*
X267463587Y-122243614D01*
X267464698Y-122245277D01*
X267464365Y-122246519D01*
X267455149Y-122260312D01*
X267456829Y-122261435D01*
X267457714Y-122263229D01*
X267457253Y-122264380D01*
X267442571Y-122281951D01*
X267433944Y-122350669D01*
X267456832Y-122398500D01*
X267456678Y-122400494D01*
X267456139Y-122401026D01*
X267455149Y-122401688D01*
X267464366Y-122415481D01*
X267464497Y-122417477D01*
X267462834Y-122418588D01*
X267461592Y-122418255D01*
X267450661Y-122410952D01*
X267431801Y-122407200D01*
X266432199Y-122407200D01*
X266413339Y-122410952D01*
X266402409Y-122418255D01*
X266400413Y-122418386D01*
X266399302Y-122416723D01*
X266399635Y-122415481D01*
X266408851Y-122401688D01*
X266407171Y-122400565D01*
X266406286Y-122398771D01*
X266406747Y-122397620D01*
X266421429Y-122380049D01*
X266430056Y-122311331D01*
X266407168Y-122263500D01*
X266407322Y-122261506D01*
X266407861Y-122260974D01*
X266408851Y-122260312D01*
X266399634Y-122246519D01*
X266399503Y-122244523D01*
X266401166Y-122243412D01*
X266402408Y-122243745D01*
G37*
G36*
X277802408Y-122243745D02*
G01*
X277813339Y-122251048D01*
X277832199Y-122254800D01*
X278831801Y-122254800D01*
X278850661Y-122251048D01*
X278861591Y-122243745D01*
X278863587Y-122243614D01*
X278864698Y-122245277D01*
X278864365Y-122246519D01*
X278855149Y-122260312D01*
X278856829Y-122261435D01*
X278857714Y-122263229D01*
X278857253Y-122264380D01*
X278842571Y-122281951D01*
X278833944Y-122350669D01*
X278856832Y-122398500D01*
X278856678Y-122400494D01*
X278856139Y-122401026D01*
X278855149Y-122401688D01*
X278864366Y-122415481D01*
X278864497Y-122417477D01*
X278862834Y-122418588D01*
X278861592Y-122418255D01*
X278850661Y-122410952D01*
X278831801Y-122407200D01*
X277832199Y-122407200D01*
X277813339Y-122410952D01*
X277802409Y-122418255D01*
X277800413Y-122418386D01*
X277799302Y-122416723D01*
X277799635Y-122415481D01*
X277808851Y-122401688D01*
X277807171Y-122400565D01*
X277806286Y-122398771D01*
X277806747Y-122397620D01*
X277821429Y-122380049D01*
X277830056Y-122311331D01*
X277807168Y-122263500D01*
X277807322Y-122261506D01*
X277807861Y-122260974D01*
X277808851Y-122260312D01*
X277799634Y-122246519D01*
X277799503Y-122244523D01*
X277801166Y-122243412D01*
X277802408Y-122243745D01*
G37*
G36*
X266402408Y-121743745D02*
G01*
X266413339Y-121751048D01*
X266432199Y-121754800D01*
X267431801Y-121754800D01*
X267450661Y-121751048D01*
X267461591Y-121743745D01*
X267463587Y-121743614D01*
X267464698Y-121745277D01*
X267464365Y-121746519D01*
X267455149Y-121760312D01*
X267456829Y-121761435D01*
X267457714Y-121763229D01*
X267457253Y-121764380D01*
X267442571Y-121781951D01*
X267433944Y-121850669D01*
X267456832Y-121898500D01*
X267456678Y-121900494D01*
X267456139Y-121901026D01*
X267455149Y-121901688D01*
X267464366Y-121915481D01*
X267464497Y-121917477D01*
X267462834Y-121918588D01*
X267461592Y-121918255D01*
X267450661Y-121910952D01*
X267431801Y-121907200D01*
X266432199Y-121907200D01*
X266413339Y-121910952D01*
X266402409Y-121918255D01*
X266400413Y-121918386D01*
X266399302Y-121916723D01*
X266399635Y-121915481D01*
X266408851Y-121901688D01*
X266407171Y-121900565D01*
X266406286Y-121898771D01*
X266406747Y-121897620D01*
X266421429Y-121880049D01*
X266430056Y-121811331D01*
X266407168Y-121763500D01*
X266407322Y-121761506D01*
X266407861Y-121760974D01*
X266408851Y-121760312D01*
X266399634Y-121746519D01*
X266399503Y-121744523D01*
X266401166Y-121743412D01*
X266402408Y-121743745D01*
G37*
G36*
X277802408Y-121743745D02*
G01*
X277813339Y-121751048D01*
X277832199Y-121754800D01*
X278831801Y-121754800D01*
X278850661Y-121751048D01*
X278861591Y-121743745D01*
X278863587Y-121743614D01*
X278864698Y-121745277D01*
X278864365Y-121746519D01*
X278855149Y-121760312D01*
X278856829Y-121761435D01*
X278857714Y-121763229D01*
X278857253Y-121764380D01*
X278842571Y-121781951D01*
X278833944Y-121850669D01*
X278856832Y-121898500D01*
X278856678Y-121900494D01*
X278856139Y-121901026D01*
X278855149Y-121901688D01*
X278864366Y-121915481D01*
X278864497Y-121917477D01*
X278862834Y-121918588D01*
X278861592Y-121918255D01*
X278850661Y-121910952D01*
X278831801Y-121907200D01*
X277832199Y-121907200D01*
X277813339Y-121910952D01*
X277802409Y-121918255D01*
X277800413Y-121918386D01*
X277799302Y-121916723D01*
X277799635Y-121915481D01*
X277808851Y-121901688D01*
X277807171Y-121900565D01*
X277806286Y-121898771D01*
X277806747Y-121897620D01*
X277821429Y-121880049D01*
X277830056Y-121811331D01*
X277807168Y-121763500D01*
X277807322Y-121761506D01*
X277807861Y-121760974D01*
X277808851Y-121760312D01*
X277799634Y-121746519D01*
X277799503Y-121744523D01*
X277801166Y-121743412D01*
X277802408Y-121743745D01*
G37*
G36*
X266402408Y-121243745D02*
G01*
X266413339Y-121251048D01*
X266432199Y-121254800D01*
X267431801Y-121254800D01*
X267450661Y-121251048D01*
X267461591Y-121243745D01*
X267463587Y-121243614D01*
X267464698Y-121245277D01*
X267464365Y-121246519D01*
X267455149Y-121260312D01*
X267456829Y-121261435D01*
X267457714Y-121263229D01*
X267457253Y-121264380D01*
X267442571Y-121281951D01*
X267433944Y-121350669D01*
X267456832Y-121398500D01*
X267456678Y-121400494D01*
X267456139Y-121401026D01*
X267455149Y-121401688D01*
X267464366Y-121415481D01*
X267464497Y-121417477D01*
X267462834Y-121418588D01*
X267461592Y-121418255D01*
X267450661Y-121410952D01*
X267431801Y-121407200D01*
X266432199Y-121407200D01*
X266413339Y-121410952D01*
X266402409Y-121418255D01*
X266400413Y-121418386D01*
X266399302Y-121416723D01*
X266399635Y-121415481D01*
X266408851Y-121401688D01*
X266407171Y-121400565D01*
X266406286Y-121398771D01*
X266406747Y-121397620D01*
X266421429Y-121380049D01*
X266430056Y-121311331D01*
X266407168Y-121263500D01*
X266407322Y-121261506D01*
X266407861Y-121260974D01*
X266408851Y-121260312D01*
X266399634Y-121246519D01*
X266399503Y-121244523D01*
X266401166Y-121243412D01*
X266402408Y-121243745D01*
G37*
G36*
X277802408Y-121243745D02*
G01*
X277813339Y-121251048D01*
X277832199Y-121254800D01*
X278831801Y-121254800D01*
X278850661Y-121251048D01*
X278861591Y-121243745D01*
X278863587Y-121243614D01*
X278864698Y-121245277D01*
X278864365Y-121246519D01*
X278855149Y-121260312D01*
X278856829Y-121261435D01*
X278857714Y-121263229D01*
X278857253Y-121264380D01*
X278842571Y-121281951D01*
X278833944Y-121350669D01*
X278856832Y-121398500D01*
X278856678Y-121400494D01*
X278856139Y-121401026D01*
X278855149Y-121401688D01*
X278864366Y-121415481D01*
X278864497Y-121417477D01*
X278862834Y-121418588D01*
X278861592Y-121418255D01*
X278850661Y-121410952D01*
X278831801Y-121407200D01*
X277832199Y-121407200D01*
X277813339Y-121410952D01*
X277802409Y-121418255D01*
X277800413Y-121418386D01*
X277799302Y-121416723D01*
X277799635Y-121415481D01*
X277808851Y-121401688D01*
X277807171Y-121400565D01*
X277806286Y-121398771D01*
X277806747Y-121397620D01*
X277821429Y-121380049D01*
X277830056Y-121311331D01*
X277807168Y-121263500D01*
X277807322Y-121261506D01*
X277807861Y-121260974D01*
X277808851Y-121260312D01*
X277799634Y-121246519D01*
X277799503Y-121244523D01*
X277801166Y-121243412D01*
X277802408Y-121243745D01*
G37*
G36*
X266402408Y-120743745D02*
G01*
X266413339Y-120751048D01*
X266432199Y-120754800D01*
X267431801Y-120754800D01*
X267450661Y-120751048D01*
X267461591Y-120743745D01*
X267463587Y-120743614D01*
X267464698Y-120745277D01*
X267464365Y-120746519D01*
X267455149Y-120760312D01*
X267456829Y-120761435D01*
X267457714Y-120763229D01*
X267457253Y-120764380D01*
X267442571Y-120781951D01*
X267433944Y-120850669D01*
X267456832Y-120898500D01*
X267456678Y-120900494D01*
X267456139Y-120901026D01*
X267455149Y-120901688D01*
X267464366Y-120915481D01*
X267464497Y-120917477D01*
X267462834Y-120918588D01*
X267461592Y-120918255D01*
X267450661Y-120910952D01*
X267431801Y-120907200D01*
X266432199Y-120907200D01*
X266413339Y-120910952D01*
X266402409Y-120918255D01*
X266400413Y-120918386D01*
X266399302Y-120916723D01*
X266399635Y-120915481D01*
X266408851Y-120901688D01*
X266407171Y-120900565D01*
X266406286Y-120898771D01*
X266406747Y-120897620D01*
X266421429Y-120880049D01*
X266430056Y-120811331D01*
X266407168Y-120763500D01*
X266407322Y-120761506D01*
X266407861Y-120760974D01*
X266408851Y-120760312D01*
X266399634Y-120746519D01*
X266399503Y-120744523D01*
X266401166Y-120743412D01*
X266402408Y-120743745D01*
G37*
G36*
X277802408Y-120743745D02*
G01*
X277813339Y-120751048D01*
X277832199Y-120754800D01*
X278831801Y-120754800D01*
X278850661Y-120751048D01*
X278861591Y-120743745D01*
X278863587Y-120743614D01*
X278864698Y-120745277D01*
X278864365Y-120746519D01*
X278855149Y-120760312D01*
X278856829Y-120761435D01*
X278857714Y-120763229D01*
X278857253Y-120764380D01*
X278842571Y-120781951D01*
X278833944Y-120850669D01*
X278856832Y-120898500D01*
X278856678Y-120900494D01*
X278856139Y-120901026D01*
X278855149Y-120901688D01*
X278864366Y-120915481D01*
X278864497Y-120917477D01*
X278862834Y-120918588D01*
X278861592Y-120918255D01*
X278850661Y-120910952D01*
X278831801Y-120907200D01*
X277832199Y-120907200D01*
X277813339Y-120910952D01*
X277802409Y-120918255D01*
X277800413Y-120918386D01*
X277799302Y-120916723D01*
X277799635Y-120915481D01*
X277808851Y-120901688D01*
X277807171Y-120900565D01*
X277806286Y-120898771D01*
X277806747Y-120897620D01*
X277821429Y-120880049D01*
X277830056Y-120811331D01*
X277807168Y-120763500D01*
X277807322Y-120761506D01*
X277807861Y-120760974D01*
X277808851Y-120760312D01*
X277799634Y-120746519D01*
X277799503Y-120744523D01*
X277801166Y-120743412D01*
X277802408Y-120743745D01*
G37*
G36*
X266402408Y-120243745D02*
G01*
X266413339Y-120251048D01*
X266432199Y-120254800D01*
X267431801Y-120254800D01*
X267450661Y-120251048D01*
X267461591Y-120243745D01*
X267463587Y-120243614D01*
X267464698Y-120245277D01*
X267464365Y-120246519D01*
X267455149Y-120260312D01*
X267456829Y-120261435D01*
X267457714Y-120263229D01*
X267457253Y-120264380D01*
X267442571Y-120281951D01*
X267433944Y-120350669D01*
X267456832Y-120398500D01*
X267456678Y-120400494D01*
X267456139Y-120401026D01*
X267455149Y-120401688D01*
X267464366Y-120415481D01*
X267464497Y-120417477D01*
X267462834Y-120418588D01*
X267461592Y-120418255D01*
X267450661Y-120410952D01*
X267431801Y-120407200D01*
X266432199Y-120407200D01*
X266413339Y-120410952D01*
X266402409Y-120418255D01*
X266400413Y-120418386D01*
X266399302Y-120416723D01*
X266399635Y-120415481D01*
X266408851Y-120401688D01*
X266407171Y-120400565D01*
X266406286Y-120398771D01*
X266406747Y-120397620D01*
X266421429Y-120380049D01*
X266430056Y-120311331D01*
X266407168Y-120263500D01*
X266407322Y-120261506D01*
X266407861Y-120260974D01*
X266408851Y-120260312D01*
X266399634Y-120246519D01*
X266399503Y-120244523D01*
X266401166Y-120243412D01*
X266402408Y-120243745D01*
G37*
G36*
X277802408Y-120243745D02*
G01*
X277813339Y-120251048D01*
X277832199Y-120254800D01*
X278831801Y-120254800D01*
X278850661Y-120251048D01*
X278861591Y-120243745D01*
X278863587Y-120243614D01*
X278864698Y-120245277D01*
X278864365Y-120246519D01*
X278855149Y-120260312D01*
X278856829Y-120261435D01*
X278857714Y-120263229D01*
X278857253Y-120264380D01*
X278842571Y-120281951D01*
X278833944Y-120350669D01*
X278856832Y-120398500D01*
X278856678Y-120400494D01*
X278856139Y-120401026D01*
X278855149Y-120401688D01*
X278864366Y-120415481D01*
X278864497Y-120417477D01*
X278862834Y-120418588D01*
X278861592Y-120418255D01*
X278850661Y-120410952D01*
X278831801Y-120407200D01*
X277832199Y-120407200D01*
X277813339Y-120410952D01*
X277802409Y-120418255D01*
X277800413Y-120418386D01*
X277799302Y-120416723D01*
X277799635Y-120415481D01*
X277808851Y-120401688D01*
X277807171Y-120400565D01*
X277806286Y-120398771D01*
X277806747Y-120397620D01*
X277821429Y-120380049D01*
X277830056Y-120311331D01*
X277807168Y-120263500D01*
X277807322Y-120261506D01*
X277807861Y-120260974D01*
X277808851Y-120260312D01*
X277799634Y-120246519D01*
X277799503Y-120244523D01*
X277801166Y-120243412D01*
X277802408Y-120243745D01*
G37*
G36*
X266402408Y-119743745D02*
G01*
X266413339Y-119751048D01*
X266432199Y-119754800D01*
X267431801Y-119754800D01*
X267450661Y-119751048D01*
X267461591Y-119743745D01*
X267463587Y-119743614D01*
X267464698Y-119745277D01*
X267464365Y-119746519D01*
X267455149Y-119760312D01*
X267456829Y-119761435D01*
X267457714Y-119763229D01*
X267457253Y-119764380D01*
X267442571Y-119781951D01*
X267433944Y-119850669D01*
X267456832Y-119898500D01*
X267456678Y-119900494D01*
X267456139Y-119901026D01*
X267455149Y-119901688D01*
X267464366Y-119915481D01*
X267464497Y-119917477D01*
X267462834Y-119918588D01*
X267461592Y-119918255D01*
X267450661Y-119910952D01*
X267431801Y-119907200D01*
X266432199Y-119907200D01*
X266413339Y-119910952D01*
X266402409Y-119918255D01*
X266400413Y-119918386D01*
X266399302Y-119916723D01*
X266399635Y-119915481D01*
X266408851Y-119901688D01*
X266407171Y-119900565D01*
X266406286Y-119898771D01*
X266406747Y-119897620D01*
X266421429Y-119880049D01*
X266430056Y-119811331D01*
X266407168Y-119763500D01*
X266407322Y-119761506D01*
X266407861Y-119760974D01*
X266408851Y-119760312D01*
X266399634Y-119746519D01*
X266399503Y-119744523D01*
X266401166Y-119743412D01*
X266402408Y-119743745D01*
G37*
G36*
X277802408Y-119743745D02*
G01*
X277813339Y-119751048D01*
X277832199Y-119754800D01*
X278831801Y-119754800D01*
X278850661Y-119751048D01*
X278861591Y-119743745D01*
X278863587Y-119743614D01*
X278864698Y-119745277D01*
X278864365Y-119746519D01*
X278855149Y-119760312D01*
X278856829Y-119761435D01*
X278857714Y-119763229D01*
X278857253Y-119764380D01*
X278842571Y-119781951D01*
X278833944Y-119850669D01*
X278856832Y-119898500D01*
X278856678Y-119900494D01*
X278856139Y-119901026D01*
X278855149Y-119901688D01*
X278864366Y-119915481D01*
X278864497Y-119917477D01*
X278862834Y-119918588D01*
X278861592Y-119918255D01*
X278850661Y-119910952D01*
X278831801Y-119907200D01*
X277832199Y-119907200D01*
X277813339Y-119910952D01*
X277802409Y-119918255D01*
X277800413Y-119918386D01*
X277799302Y-119916723D01*
X277799635Y-119915481D01*
X277808851Y-119901688D01*
X277807171Y-119900565D01*
X277806286Y-119898771D01*
X277806747Y-119897620D01*
X277821429Y-119880049D01*
X277830056Y-119811331D01*
X277807168Y-119763500D01*
X277807322Y-119761506D01*
X277807861Y-119760974D01*
X277808851Y-119760312D01*
X277799634Y-119746519D01*
X277799503Y-119744523D01*
X277801166Y-119743412D01*
X277802408Y-119743745D01*
G37*
G36*
X266402408Y-119243745D02*
G01*
X266413339Y-119251048D01*
X266432199Y-119254800D01*
X267431801Y-119254800D01*
X267450661Y-119251048D01*
X267461591Y-119243745D01*
X267463587Y-119243614D01*
X267464698Y-119245277D01*
X267464365Y-119246519D01*
X267455149Y-119260312D01*
X267456829Y-119261435D01*
X267457714Y-119263229D01*
X267457253Y-119264380D01*
X267442571Y-119281951D01*
X267433944Y-119350669D01*
X267456832Y-119398500D01*
X267456678Y-119400494D01*
X267456139Y-119401026D01*
X267455149Y-119401688D01*
X267464366Y-119415481D01*
X267464497Y-119417477D01*
X267462834Y-119418588D01*
X267461592Y-119418255D01*
X267450661Y-119410952D01*
X267431801Y-119407200D01*
X266432199Y-119407200D01*
X266413339Y-119410952D01*
X266402409Y-119418255D01*
X266400413Y-119418386D01*
X266399302Y-119416723D01*
X266399635Y-119415481D01*
X266408851Y-119401688D01*
X266407171Y-119400565D01*
X266406286Y-119398771D01*
X266406747Y-119397620D01*
X266421429Y-119380049D01*
X266430056Y-119311331D01*
X266407168Y-119263500D01*
X266407322Y-119261506D01*
X266407861Y-119260974D01*
X266408851Y-119260312D01*
X266399634Y-119246519D01*
X266399503Y-119244523D01*
X266401166Y-119243412D01*
X266402408Y-119243745D01*
G37*
G36*
X277802408Y-119243745D02*
G01*
X277813339Y-119251048D01*
X277832199Y-119254800D01*
X278831801Y-119254800D01*
X278850661Y-119251048D01*
X278861591Y-119243745D01*
X278863587Y-119243614D01*
X278864698Y-119245277D01*
X278864365Y-119246519D01*
X278855149Y-119260312D01*
X278856829Y-119261435D01*
X278857714Y-119263229D01*
X278857253Y-119264380D01*
X278842571Y-119281951D01*
X278833944Y-119350669D01*
X278856832Y-119398500D01*
X278856678Y-119400494D01*
X278856139Y-119401026D01*
X278855149Y-119401688D01*
X278864366Y-119415481D01*
X278864497Y-119417477D01*
X278862834Y-119418588D01*
X278861592Y-119418255D01*
X278850661Y-119410952D01*
X278831801Y-119407200D01*
X277832199Y-119407200D01*
X277813339Y-119410952D01*
X277802409Y-119418255D01*
X277800413Y-119418386D01*
X277799302Y-119416723D01*
X277799635Y-119415481D01*
X277808851Y-119401688D01*
X277807171Y-119400565D01*
X277806286Y-119398771D01*
X277806747Y-119397620D01*
X277821429Y-119380049D01*
X277830056Y-119311331D01*
X277807168Y-119263500D01*
X277807322Y-119261506D01*
X277807861Y-119260974D01*
X277808851Y-119260312D01*
X277799634Y-119246519D01*
X277799503Y-119244523D01*
X277801166Y-119243412D01*
X277802408Y-119243745D01*
G37*
G36*
X266402408Y-118743745D02*
G01*
X266413339Y-118751048D01*
X266432199Y-118754800D01*
X267431801Y-118754800D01*
X267450661Y-118751048D01*
X267461591Y-118743745D01*
X267463587Y-118743614D01*
X267464698Y-118745277D01*
X267464365Y-118746519D01*
X267455149Y-118760312D01*
X267456829Y-118761435D01*
X267457714Y-118763229D01*
X267457253Y-118764380D01*
X267442571Y-118781951D01*
X267433944Y-118850669D01*
X267456832Y-118898500D01*
X267456678Y-118900494D01*
X267456139Y-118901026D01*
X267455149Y-118901688D01*
X267464366Y-118915481D01*
X267464497Y-118917477D01*
X267462834Y-118918588D01*
X267461592Y-118918255D01*
X267450661Y-118910952D01*
X267431801Y-118907200D01*
X266432199Y-118907200D01*
X266413339Y-118910952D01*
X266402409Y-118918255D01*
X266400413Y-118918386D01*
X266399302Y-118916723D01*
X266399635Y-118915481D01*
X266408851Y-118901688D01*
X266407171Y-118900565D01*
X266406286Y-118898771D01*
X266406747Y-118897620D01*
X266421429Y-118880049D01*
X266430056Y-118811331D01*
X266407168Y-118763500D01*
X266407322Y-118761506D01*
X266407861Y-118760974D01*
X266408851Y-118760312D01*
X266399634Y-118746519D01*
X266399503Y-118744523D01*
X266401166Y-118743412D01*
X266402408Y-118743745D01*
G37*
G36*
X277802408Y-118743745D02*
G01*
X277813339Y-118751048D01*
X277832199Y-118754800D01*
X278831801Y-118754800D01*
X278850661Y-118751048D01*
X278861591Y-118743745D01*
X278863587Y-118743614D01*
X278864698Y-118745277D01*
X278864365Y-118746519D01*
X278855149Y-118760312D01*
X278856829Y-118761435D01*
X278857714Y-118763229D01*
X278857253Y-118764380D01*
X278842571Y-118781951D01*
X278833944Y-118850669D01*
X278856832Y-118898500D01*
X278856678Y-118900494D01*
X278856139Y-118901026D01*
X278855149Y-118901688D01*
X278864366Y-118915481D01*
X278864497Y-118917477D01*
X278862834Y-118918588D01*
X278861592Y-118918255D01*
X278850661Y-118910952D01*
X278831801Y-118907200D01*
X277832199Y-118907200D01*
X277813339Y-118910952D01*
X277802409Y-118918255D01*
X277800413Y-118918386D01*
X277799302Y-118916723D01*
X277799635Y-118915481D01*
X277808851Y-118901688D01*
X277807171Y-118900565D01*
X277806286Y-118898771D01*
X277806747Y-118897620D01*
X277821429Y-118880049D01*
X277830056Y-118811331D01*
X277807168Y-118763500D01*
X277807322Y-118761506D01*
X277807861Y-118760974D01*
X277808851Y-118760312D01*
X277799634Y-118746519D01*
X277799503Y-118744523D01*
X277801166Y-118743412D01*
X277802408Y-118743745D01*
G37*
G36*
X277802408Y-118243745D02*
G01*
X277813339Y-118251048D01*
X277832199Y-118254800D01*
X278831801Y-118254800D01*
X278850661Y-118251048D01*
X278861591Y-118243745D01*
X278863587Y-118243614D01*
X278864698Y-118245277D01*
X278864365Y-118246519D01*
X278855149Y-118260312D01*
X278856829Y-118261435D01*
X278857714Y-118263229D01*
X278857253Y-118264380D01*
X278842571Y-118281951D01*
X278833944Y-118350669D01*
X278856832Y-118398500D01*
X278856678Y-118400494D01*
X278856139Y-118401026D01*
X278855149Y-118401688D01*
X278864366Y-118415481D01*
X278864497Y-118417477D01*
X278862834Y-118418588D01*
X278861592Y-118418255D01*
X278850661Y-118410952D01*
X278831801Y-118407200D01*
X277832199Y-118407200D01*
X277813339Y-118410952D01*
X277802409Y-118418255D01*
X277800413Y-118418386D01*
X277799302Y-118416723D01*
X277799635Y-118415481D01*
X277808851Y-118401688D01*
X277807171Y-118400565D01*
X277806286Y-118398771D01*
X277806747Y-118397620D01*
X277821429Y-118380049D01*
X277830056Y-118311331D01*
X277807168Y-118263500D01*
X277807322Y-118261506D01*
X277807861Y-118260974D01*
X277808851Y-118260312D01*
X277799634Y-118246519D01*
X277799503Y-118244523D01*
X277801166Y-118243412D01*
X277802408Y-118243745D01*
G37*
G36*
X266402408Y-118243745D02*
G01*
X266413339Y-118251048D01*
X266432199Y-118254800D01*
X267431801Y-118254800D01*
X267450661Y-118251048D01*
X267461591Y-118243745D01*
X267463587Y-118243614D01*
X267464698Y-118245277D01*
X267464365Y-118246519D01*
X267455149Y-118260312D01*
X267456829Y-118261435D01*
X267457714Y-118263229D01*
X267457253Y-118264380D01*
X267442571Y-118281951D01*
X267433944Y-118350669D01*
X267456832Y-118398500D01*
X267456678Y-118400494D01*
X267456139Y-118401026D01*
X267455149Y-118401688D01*
X267464366Y-118415481D01*
X267464497Y-118417477D01*
X267462834Y-118418588D01*
X267461592Y-118418255D01*
X267450661Y-118410952D01*
X267431801Y-118407200D01*
X266432199Y-118407200D01*
X266413339Y-118410952D01*
X266402409Y-118418255D01*
X266400413Y-118418386D01*
X266399302Y-118416723D01*
X266399635Y-118415481D01*
X266408851Y-118401688D01*
X266407171Y-118400565D01*
X266406286Y-118398771D01*
X266406747Y-118397620D01*
X266421429Y-118380049D01*
X266430056Y-118311331D01*
X266407168Y-118263500D01*
X266407322Y-118261506D01*
X266407861Y-118260974D01*
X266408851Y-118260312D01*
X266399634Y-118246519D01*
X266399503Y-118244523D01*
X266401166Y-118243412D01*
X266402408Y-118243745D01*
G37*
G36*
X266402408Y-117743745D02*
G01*
X266413339Y-117751048D01*
X266432199Y-117754800D01*
X267431801Y-117754800D01*
X267450661Y-117751048D01*
X267461591Y-117743745D01*
X267463587Y-117743614D01*
X267464698Y-117745277D01*
X267464365Y-117746519D01*
X267455149Y-117760312D01*
X267456829Y-117761435D01*
X267457714Y-117763229D01*
X267457253Y-117764380D01*
X267442571Y-117781951D01*
X267433944Y-117850669D01*
X267456832Y-117898500D01*
X267456678Y-117900494D01*
X267456139Y-117901026D01*
X267455149Y-117901688D01*
X267464366Y-117915481D01*
X267464497Y-117917477D01*
X267462834Y-117918588D01*
X267461592Y-117918255D01*
X267450661Y-117910952D01*
X267431801Y-117907200D01*
X266432199Y-117907200D01*
X266413339Y-117910952D01*
X266402409Y-117918255D01*
X266400413Y-117918386D01*
X266399302Y-117916723D01*
X266399635Y-117915481D01*
X266408851Y-117901688D01*
X266407171Y-117900565D01*
X266406286Y-117898771D01*
X266406747Y-117897620D01*
X266421429Y-117880049D01*
X266430056Y-117811331D01*
X266407168Y-117763500D01*
X266407322Y-117761506D01*
X266407861Y-117760974D01*
X266408851Y-117760312D01*
X266399634Y-117746519D01*
X266399503Y-117744523D01*
X266401166Y-117743412D01*
X266402408Y-117743745D01*
G37*
G36*
X277802408Y-117743745D02*
G01*
X277813339Y-117751048D01*
X277832199Y-117754800D01*
X278831801Y-117754800D01*
X278850661Y-117751048D01*
X278861591Y-117743745D01*
X278863587Y-117743614D01*
X278864698Y-117745277D01*
X278864365Y-117746519D01*
X278855149Y-117760312D01*
X278856829Y-117761435D01*
X278857714Y-117763229D01*
X278857253Y-117764380D01*
X278842571Y-117781951D01*
X278833944Y-117850669D01*
X278856832Y-117898500D01*
X278856678Y-117900494D01*
X278856139Y-117901026D01*
X278855149Y-117901688D01*
X278864366Y-117915481D01*
X278864497Y-117917477D01*
X278862834Y-117918588D01*
X278861592Y-117918255D01*
X278850661Y-117910952D01*
X278831801Y-117907200D01*
X277832199Y-117907200D01*
X277813339Y-117910952D01*
X277802409Y-117918255D01*
X277800413Y-117918386D01*
X277799302Y-117916723D01*
X277799635Y-117915481D01*
X277808851Y-117901688D01*
X277807171Y-117900565D01*
X277806286Y-117898771D01*
X277806747Y-117897620D01*
X277821429Y-117880049D01*
X277830056Y-117811331D01*
X277807168Y-117763500D01*
X277807322Y-117761506D01*
X277807861Y-117760974D01*
X277808851Y-117760312D01*
X277799634Y-117746519D01*
X277799503Y-117744523D01*
X277801166Y-117743412D01*
X277802408Y-117743745D01*
G37*
G36*
X266402408Y-117243745D02*
G01*
X266413339Y-117251048D01*
X266432199Y-117254800D01*
X267431801Y-117254800D01*
X267450661Y-117251048D01*
X267461591Y-117243745D01*
X267463587Y-117243614D01*
X267464698Y-117245277D01*
X267464365Y-117246519D01*
X267455149Y-117260312D01*
X267456829Y-117261435D01*
X267457714Y-117263229D01*
X267457253Y-117264380D01*
X267442571Y-117281951D01*
X267433944Y-117350669D01*
X267456832Y-117398500D01*
X267456678Y-117400494D01*
X267456139Y-117401026D01*
X267455149Y-117401688D01*
X267464366Y-117415481D01*
X267464497Y-117417477D01*
X267462834Y-117418588D01*
X267461592Y-117418255D01*
X267450661Y-117410952D01*
X267431801Y-117407200D01*
X266432199Y-117407200D01*
X266413339Y-117410952D01*
X266402409Y-117418255D01*
X266400413Y-117418386D01*
X266399302Y-117416723D01*
X266399635Y-117415481D01*
X266408851Y-117401688D01*
X266407171Y-117400565D01*
X266406286Y-117398771D01*
X266406747Y-117397620D01*
X266421429Y-117380049D01*
X266430056Y-117311331D01*
X266407168Y-117263500D01*
X266407322Y-117261506D01*
X266407861Y-117260974D01*
X266408851Y-117260312D01*
X266399634Y-117246519D01*
X266399503Y-117244523D01*
X266401166Y-117243412D01*
X266402408Y-117243745D01*
G37*
G36*
X277802408Y-117243745D02*
G01*
X277813339Y-117251048D01*
X277832199Y-117254800D01*
X278831801Y-117254800D01*
X278850661Y-117251048D01*
X278861591Y-117243745D01*
X278863587Y-117243614D01*
X278864698Y-117245277D01*
X278864365Y-117246519D01*
X278855149Y-117260312D01*
X278856829Y-117261435D01*
X278857714Y-117263229D01*
X278857253Y-117264380D01*
X278842571Y-117281951D01*
X278833944Y-117350669D01*
X278856832Y-117398500D01*
X278856678Y-117400494D01*
X278856139Y-117401026D01*
X278855149Y-117401688D01*
X278864366Y-117415481D01*
X278864497Y-117417477D01*
X278862834Y-117418588D01*
X278861592Y-117418255D01*
X278850661Y-117410952D01*
X278831801Y-117407200D01*
X277832199Y-117407200D01*
X277813339Y-117410952D01*
X277802409Y-117418255D01*
X277800413Y-117418386D01*
X277799302Y-117416723D01*
X277799635Y-117415481D01*
X277808851Y-117401688D01*
X277807171Y-117400565D01*
X277806286Y-117398771D01*
X277806747Y-117397620D01*
X277821429Y-117380049D01*
X277830056Y-117311331D01*
X277807168Y-117263500D01*
X277807322Y-117261506D01*
X277807861Y-117260974D01*
X277808851Y-117260312D01*
X277799634Y-117246519D01*
X277799503Y-117244523D01*
X277801166Y-117243412D01*
X277802408Y-117243745D01*
G37*
G36*
X277802408Y-116743745D02*
G01*
X277813339Y-116751048D01*
X277832199Y-116754800D01*
X278831801Y-116754800D01*
X278850661Y-116751048D01*
X278861591Y-116743745D01*
X278863587Y-116743614D01*
X278864698Y-116745277D01*
X278864365Y-116746519D01*
X278855149Y-116760312D01*
X278856829Y-116761435D01*
X278857714Y-116763229D01*
X278857253Y-116764380D01*
X278842571Y-116781951D01*
X278833944Y-116850669D01*
X278856832Y-116898500D01*
X278856678Y-116900494D01*
X278856139Y-116901026D01*
X278855149Y-116901688D01*
X278864366Y-116915481D01*
X278864497Y-116917477D01*
X278862834Y-116918588D01*
X278861592Y-116918255D01*
X278850661Y-116910952D01*
X278831801Y-116907200D01*
X277832199Y-116907200D01*
X277813339Y-116910952D01*
X277802409Y-116918255D01*
X277800413Y-116918386D01*
X277799302Y-116916723D01*
X277799635Y-116915481D01*
X277808851Y-116901688D01*
X277807171Y-116900565D01*
X277806286Y-116898771D01*
X277806747Y-116897620D01*
X277821429Y-116880049D01*
X277830056Y-116811331D01*
X277807168Y-116763500D01*
X277807322Y-116761506D01*
X277807861Y-116760974D01*
X277808851Y-116760312D01*
X277799634Y-116746519D01*
X277799503Y-116744523D01*
X277801166Y-116743412D01*
X277802408Y-116743745D01*
G37*
G36*
X266402408Y-116743745D02*
G01*
X266413339Y-116751048D01*
X266432199Y-116754800D01*
X267431801Y-116754800D01*
X267450661Y-116751048D01*
X267461591Y-116743745D01*
X267463587Y-116743614D01*
X267464698Y-116745277D01*
X267464365Y-116746519D01*
X267455149Y-116760312D01*
X267456829Y-116761435D01*
X267457714Y-116763229D01*
X267457253Y-116764380D01*
X267442571Y-116781951D01*
X267433944Y-116850669D01*
X267456832Y-116898500D01*
X267456678Y-116900494D01*
X267456139Y-116901026D01*
X267455149Y-116901688D01*
X267464366Y-116915481D01*
X267464497Y-116917477D01*
X267462834Y-116918588D01*
X267461592Y-116918255D01*
X267450661Y-116910952D01*
X267431801Y-116907200D01*
X266432199Y-116907200D01*
X266413339Y-116910952D01*
X266402409Y-116918255D01*
X266400413Y-116918386D01*
X266399302Y-116916723D01*
X266399635Y-116915481D01*
X266408851Y-116901688D01*
X266407171Y-116900565D01*
X266406286Y-116898771D01*
X266406747Y-116897620D01*
X266421429Y-116880049D01*
X266430056Y-116811331D01*
X266407168Y-116763500D01*
X266407322Y-116761506D01*
X266407861Y-116760974D01*
X266408851Y-116760312D01*
X266399634Y-116746519D01*
X266399503Y-116744523D01*
X266401166Y-116743412D01*
X266402408Y-116743745D01*
G37*
G36*
X266402408Y-116243745D02*
G01*
X266413339Y-116251048D01*
X266432199Y-116254800D01*
X267431801Y-116254800D01*
X267450661Y-116251048D01*
X267461591Y-116243745D01*
X267463587Y-116243614D01*
X267464698Y-116245277D01*
X267464365Y-116246519D01*
X267455149Y-116260312D01*
X267456829Y-116261435D01*
X267457714Y-116263229D01*
X267457253Y-116264380D01*
X267442571Y-116281951D01*
X267433944Y-116350669D01*
X267456832Y-116398500D01*
X267456678Y-116400494D01*
X267456139Y-116401026D01*
X267455149Y-116401688D01*
X267464366Y-116415481D01*
X267464497Y-116417477D01*
X267462834Y-116418588D01*
X267461592Y-116418255D01*
X267450661Y-116410952D01*
X267431801Y-116407200D01*
X266432199Y-116407200D01*
X266413339Y-116410952D01*
X266402409Y-116418255D01*
X266400413Y-116418386D01*
X266399302Y-116416723D01*
X266399635Y-116415481D01*
X266408851Y-116401688D01*
X266407171Y-116400565D01*
X266406286Y-116398771D01*
X266406747Y-116397620D01*
X266421429Y-116380049D01*
X266430056Y-116311331D01*
X266407168Y-116263500D01*
X266407322Y-116261506D01*
X266407861Y-116260974D01*
X266408851Y-116260312D01*
X266399634Y-116246519D01*
X266399503Y-116244523D01*
X266401166Y-116243412D01*
X266402408Y-116243745D01*
G37*
G36*
X277802408Y-116243745D02*
G01*
X277813339Y-116251048D01*
X277832199Y-116254800D01*
X278831801Y-116254800D01*
X278850661Y-116251048D01*
X278861591Y-116243745D01*
X278863587Y-116243614D01*
X278864698Y-116245277D01*
X278864365Y-116246519D01*
X278855149Y-116260312D01*
X278856829Y-116261435D01*
X278857714Y-116263229D01*
X278857253Y-116264380D01*
X278842571Y-116281951D01*
X278833944Y-116350669D01*
X278856832Y-116398500D01*
X278856678Y-116400494D01*
X278856139Y-116401026D01*
X278855149Y-116401688D01*
X278864366Y-116415481D01*
X278864497Y-116417477D01*
X278862834Y-116418588D01*
X278861592Y-116418255D01*
X278850661Y-116410952D01*
X278831801Y-116407200D01*
X277832199Y-116407200D01*
X277813339Y-116410952D01*
X277802409Y-116418255D01*
X277800413Y-116418386D01*
X277799302Y-116416723D01*
X277799635Y-116415481D01*
X277808851Y-116401688D01*
X277807171Y-116400565D01*
X277806286Y-116398771D01*
X277806747Y-116397620D01*
X277821429Y-116380049D01*
X277830056Y-116311331D01*
X277807168Y-116263500D01*
X277807322Y-116261506D01*
X277807861Y-116260974D01*
X277808851Y-116260312D01*
X277799634Y-116246519D01*
X277799503Y-116244523D01*
X277801166Y-116243412D01*
X277802408Y-116243745D01*
G37*
G36*
X266402408Y-115743745D02*
G01*
X266413339Y-115751048D01*
X266432199Y-115754800D01*
X267431801Y-115754800D01*
X267450661Y-115751048D01*
X267461591Y-115743745D01*
X267463587Y-115743614D01*
X267464698Y-115745277D01*
X267464365Y-115746519D01*
X267455149Y-115760312D01*
X267456829Y-115761435D01*
X267457714Y-115763229D01*
X267457253Y-115764380D01*
X267442571Y-115781951D01*
X267433944Y-115850669D01*
X267456832Y-115898500D01*
X267456678Y-115900494D01*
X267456139Y-115901026D01*
X267455149Y-115901688D01*
X267464366Y-115915481D01*
X267464497Y-115917477D01*
X267462834Y-115918588D01*
X267461592Y-115918255D01*
X267450661Y-115910952D01*
X267431801Y-115907200D01*
X266432199Y-115907200D01*
X266413339Y-115910952D01*
X266402409Y-115918255D01*
X266400413Y-115918386D01*
X266399302Y-115916723D01*
X266399635Y-115915481D01*
X266408851Y-115901688D01*
X266407171Y-115900565D01*
X266406286Y-115898771D01*
X266406747Y-115897620D01*
X266421429Y-115880049D01*
X266430056Y-115811331D01*
X266407168Y-115763500D01*
X266407322Y-115761506D01*
X266407861Y-115760974D01*
X266408851Y-115760312D01*
X266399634Y-115746519D01*
X266399503Y-115744523D01*
X266401166Y-115743412D01*
X266402408Y-115743745D01*
G37*
G36*
X277802408Y-115743745D02*
G01*
X277813339Y-115751048D01*
X277832199Y-115754800D01*
X278831801Y-115754800D01*
X278850661Y-115751048D01*
X278861591Y-115743745D01*
X278863587Y-115743614D01*
X278864698Y-115745277D01*
X278864365Y-115746519D01*
X278855149Y-115760312D01*
X278856829Y-115761435D01*
X278857714Y-115763229D01*
X278857253Y-115764380D01*
X278842571Y-115781951D01*
X278833944Y-115850669D01*
X278856832Y-115898500D01*
X278856678Y-115900494D01*
X278856139Y-115901026D01*
X278855149Y-115901688D01*
X278864366Y-115915481D01*
X278864497Y-115917477D01*
X278862834Y-115918588D01*
X278861592Y-115918255D01*
X278850661Y-115910952D01*
X278831801Y-115907200D01*
X277832199Y-115907200D01*
X277813339Y-115910952D01*
X277802409Y-115918255D01*
X277800413Y-115918386D01*
X277799302Y-115916723D01*
X277799635Y-115915481D01*
X277808851Y-115901688D01*
X277807171Y-115900565D01*
X277806286Y-115898771D01*
X277806747Y-115897620D01*
X277821429Y-115880049D01*
X277830056Y-115811331D01*
X277807168Y-115763500D01*
X277807322Y-115761506D01*
X277807861Y-115760974D01*
X277808851Y-115760312D01*
X277799634Y-115746519D01*
X277799503Y-115744523D01*
X277801166Y-115743412D01*
X277802408Y-115743745D01*
G37*
G36*
X266402408Y-115243745D02*
G01*
X266413339Y-115251048D01*
X266432199Y-115254800D01*
X267431801Y-115254800D01*
X267450661Y-115251048D01*
X267461591Y-115243745D01*
X267463587Y-115243614D01*
X267464698Y-115245277D01*
X267464365Y-115246519D01*
X267455149Y-115260312D01*
X267456829Y-115261435D01*
X267457714Y-115263229D01*
X267457253Y-115264380D01*
X267442571Y-115281951D01*
X267433944Y-115350669D01*
X267456832Y-115398500D01*
X267456678Y-115400494D01*
X267456139Y-115401026D01*
X267455149Y-115401688D01*
X267464366Y-115415481D01*
X267464497Y-115417477D01*
X267462834Y-115418588D01*
X267461592Y-115418255D01*
X267450661Y-115410952D01*
X267431801Y-115407200D01*
X266432199Y-115407200D01*
X266413339Y-115410952D01*
X266402409Y-115418255D01*
X266400413Y-115418386D01*
X266399302Y-115416723D01*
X266399635Y-115415481D01*
X266408851Y-115401688D01*
X266407171Y-115400565D01*
X266406286Y-115398771D01*
X266406747Y-115397620D01*
X266421429Y-115380049D01*
X266430056Y-115311331D01*
X266407168Y-115263500D01*
X266407322Y-115261506D01*
X266407861Y-115260974D01*
X266408851Y-115260312D01*
X266399634Y-115246519D01*
X266399503Y-115244523D01*
X266401166Y-115243412D01*
X266402408Y-115243745D01*
G37*
G36*
X277802408Y-115243745D02*
G01*
X277813339Y-115251048D01*
X277832199Y-115254800D01*
X278831801Y-115254800D01*
X278850661Y-115251048D01*
X278861591Y-115243745D01*
X278863587Y-115243614D01*
X278864698Y-115245277D01*
X278864365Y-115246519D01*
X278855149Y-115260312D01*
X278856829Y-115261435D01*
X278857714Y-115263229D01*
X278857253Y-115264380D01*
X278842571Y-115281951D01*
X278833944Y-115350669D01*
X278856832Y-115398500D01*
X278856678Y-115400494D01*
X278856139Y-115401026D01*
X278855149Y-115401688D01*
X278864366Y-115415481D01*
X278864497Y-115417477D01*
X278862834Y-115418588D01*
X278861592Y-115418255D01*
X278850661Y-115410952D01*
X278831801Y-115407200D01*
X277832199Y-115407200D01*
X277813339Y-115410952D01*
X277802409Y-115418255D01*
X277800413Y-115418386D01*
X277799302Y-115416723D01*
X277799635Y-115415481D01*
X277808851Y-115401688D01*
X277807171Y-115400565D01*
X277806286Y-115398771D01*
X277806747Y-115397620D01*
X277821429Y-115380049D01*
X277830056Y-115311331D01*
X277807168Y-115263500D01*
X277807322Y-115261506D01*
X277807861Y-115260974D01*
X277808851Y-115260312D01*
X277799634Y-115246519D01*
X277799503Y-115244523D01*
X277801166Y-115243412D01*
X277802408Y-115243745D01*
G37*
G36*
X275547519Y-112598635D02*
G01*
X275561312Y-112607851D01*
X275562435Y-112606171D01*
X275564229Y-112605286D01*
X275565380Y-112605747D01*
X275582951Y-112620429D01*
X275651669Y-112629056D01*
X275699500Y-112606168D01*
X275701494Y-112606322D01*
X275702026Y-112606861D01*
X275702688Y-112607851D01*
X275716481Y-112598634D01*
X275718477Y-112598503D01*
X275719588Y-112600166D01*
X275719255Y-112601408D01*
X275711952Y-112612339D01*
X275708200Y-112631199D01*
X275708200Y-113630801D01*
X275711952Y-113649661D01*
X275719255Y-113660591D01*
X275719386Y-113662587D01*
X275717723Y-113663698D01*
X275716481Y-113663365D01*
X275702688Y-113654149D01*
X275701565Y-113655829D01*
X275699771Y-113656714D01*
X275698620Y-113656253D01*
X275681049Y-113641571D01*
X275612331Y-113632944D01*
X275564500Y-113655832D01*
X275562506Y-113655678D01*
X275561974Y-113655139D01*
X275561312Y-113654149D01*
X275547519Y-113663366D01*
X275545523Y-113663497D01*
X275544412Y-113661834D01*
X275544745Y-113660592D01*
X275552048Y-113649661D01*
X275555800Y-113630801D01*
X275555800Y-112631199D01*
X275552048Y-112612339D01*
X275544745Y-112601409D01*
X275544614Y-112599413D01*
X275546277Y-112598302D01*
X275547519Y-112598635D01*
G37*
G36*
X274047519Y-112598635D02*
G01*
X274061312Y-112607851D01*
X274062435Y-112606171D01*
X274064229Y-112605286D01*
X274065380Y-112605747D01*
X274082951Y-112620429D01*
X274151669Y-112629056D01*
X274199500Y-112606168D01*
X274201494Y-112606322D01*
X274202026Y-112606861D01*
X274202688Y-112607851D01*
X274216481Y-112598634D01*
X274218477Y-112598503D01*
X274219588Y-112600166D01*
X274219255Y-112601408D01*
X274211952Y-112612339D01*
X274208200Y-112631199D01*
X274208200Y-113630801D01*
X274211952Y-113649661D01*
X274219255Y-113660591D01*
X274219386Y-113662587D01*
X274217723Y-113663698D01*
X274216481Y-113663365D01*
X274202688Y-113654149D01*
X274201565Y-113655829D01*
X274199771Y-113656714D01*
X274198620Y-113656253D01*
X274181049Y-113641571D01*
X274112331Y-113632944D01*
X274064500Y-113655832D01*
X274062506Y-113655678D01*
X274061974Y-113655139D01*
X274061312Y-113654149D01*
X274047519Y-113663366D01*
X274045523Y-113663497D01*
X274044412Y-113661834D01*
X274044745Y-113660592D01*
X274052048Y-113649661D01*
X274055800Y-113630801D01*
X274055800Y-112631199D01*
X274052048Y-112612339D01*
X274044745Y-112601409D01*
X274044614Y-112599413D01*
X274046277Y-112598302D01*
X274047519Y-112598635D01*
G37*
G36*
X275047519Y-112598635D02*
G01*
X275061312Y-112607851D01*
X275062435Y-112606171D01*
X275064229Y-112605286D01*
X275065380Y-112605747D01*
X275082951Y-112620429D01*
X275151669Y-112629056D01*
X275199500Y-112606168D01*
X275201494Y-112606322D01*
X275202026Y-112606861D01*
X275202688Y-112607851D01*
X275216481Y-112598634D01*
X275218477Y-112598503D01*
X275219588Y-112600166D01*
X275219255Y-112601408D01*
X275211952Y-112612339D01*
X275208200Y-112631199D01*
X275208200Y-113630801D01*
X275211952Y-113649661D01*
X275219255Y-113660591D01*
X275219386Y-113662587D01*
X275217723Y-113663698D01*
X275216481Y-113663365D01*
X275202688Y-113654149D01*
X275201565Y-113655829D01*
X275199771Y-113656714D01*
X275198620Y-113656253D01*
X275181049Y-113641571D01*
X275112331Y-113632944D01*
X275064500Y-113655832D01*
X275062506Y-113655678D01*
X275061974Y-113655139D01*
X275061312Y-113654149D01*
X275047519Y-113663366D01*
X275045523Y-113663497D01*
X275044412Y-113661834D01*
X275044745Y-113660592D01*
X275052048Y-113649661D01*
X275055800Y-113630801D01*
X275055800Y-112631199D01*
X275052048Y-112612339D01*
X275044745Y-112601409D01*
X275044614Y-112599413D01*
X275046277Y-112598302D01*
X275047519Y-112598635D01*
G37*
G36*
X272547519Y-112598635D02*
G01*
X272561312Y-112607851D01*
X272562435Y-112606171D01*
X272564229Y-112605286D01*
X272565380Y-112605747D01*
X272582951Y-112620429D01*
X272651669Y-112629056D01*
X272699500Y-112606168D01*
X272701494Y-112606322D01*
X272702026Y-112606861D01*
X272702688Y-112607851D01*
X272716481Y-112598634D01*
X272718477Y-112598503D01*
X272719588Y-112600166D01*
X272719255Y-112601408D01*
X272711952Y-112612339D01*
X272708200Y-112631199D01*
X272708200Y-113630801D01*
X272711952Y-113649661D01*
X272719255Y-113660591D01*
X272719386Y-113662587D01*
X272717723Y-113663698D01*
X272716481Y-113663365D01*
X272702688Y-113654149D01*
X272701565Y-113655829D01*
X272699771Y-113656714D01*
X272698620Y-113656253D01*
X272681049Y-113641571D01*
X272612331Y-113632944D01*
X272564500Y-113655832D01*
X272562506Y-113655678D01*
X272561974Y-113655139D01*
X272561312Y-113654149D01*
X272547519Y-113663366D01*
X272545523Y-113663497D01*
X272544412Y-113661834D01*
X272544745Y-113660592D01*
X272552048Y-113649661D01*
X272555800Y-113630801D01*
X272555800Y-112631199D01*
X272552048Y-112612339D01*
X272544745Y-112601409D01*
X272544614Y-112599413D01*
X272546277Y-112598302D01*
X272547519Y-112598635D01*
G37*
G36*
X269047519Y-112598635D02*
G01*
X269061312Y-112607851D01*
X269062435Y-112606171D01*
X269064229Y-112605286D01*
X269065380Y-112605747D01*
X269082951Y-112620429D01*
X269151669Y-112629056D01*
X269199500Y-112606168D01*
X269201494Y-112606322D01*
X269202026Y-112606861D01*
X269202688Y-112607851D01*
X269216481Y-112598634D01*
X269218477Y-112598503D01*
X269219588Y-112600166D01*
X269219255Y-112601408D01*
X269211952Y-112612339D01*
X269208200Y-112631199D01*
X269208200Y-113630801D01*
X269211952Y-113649661D01*
X269219255Y-113660591D01*
X269219386Y-113662587D01*
X269217723Y-113663698D01*
X269216481Y-113663365D01*
X269202688Y-113654149D01*
X269201565Y-113655829D01*
X269199771Y-113656714D01*
X269198620Y-113656253D01*
X269181049Y-113641571D01*
X269112331Y-113632944D01*
X269064500Y-113655832D01*
X269062506Y-113655678D01*
X269061974Y-113655139D01*
X269061312Y-113654149D01*
X269047519Y-113663366D01*
X269045523Y-113663497D01*
X269044412Y-113661834D01*
X269044745Y-113660592D01*
X269052048Y-113649661D01*
X269055800Y-113630801D01*
X269055800Y-112631199D01*
X269052048Y-112612339D01*
X269044745Y-112601409D01*
X269044614Y-112599413D01*
X269046277Y-112598302D01*
X269047519Y-112598635D01*
G37*
G36*
X273547519Y-112598635D02*
G01*
X273561312Y-112607851D01*
X273562435Y-112606171D01*
X273564229Y-112605286D01*
X273565380Y-112605747D01*
X273582951Y-112620429D01*
X273651669Y-112629056D01*
X273699500Y-112606168D01*
X273701494Y-112606322D01*
X273702026Y-112606861D01*
X273702688Y-112607851D01*
X273716481Y-112598634D01*
X273718477Y-112598503D01*
X273719588Y-112600166D01*
X273719255Y-112601408D01*
X273711952Y-112612339D01*
X273708200Y-112631199D01*
X273708200Y-113630801D01*
X273711952Y-113649661D01*
X273719255Y-113660591D01*
X273719386Y-113662587D01*
X273717723Y-113663698D01*
X273716481Y-113663365D01*
X273702688Y-113654149D01*
X273701565Y-113655829D01*
X273699771Y-113656714D01*
X273698620Y-113656253D01*
X273681049Y-113641571D01*
X273612331Y-113632944D01*
X273564500Y-113655832D01*
X273562506Y-113655678D01*
X273561974Y-113655139D01*
X273561312Y-113654149D01*
X273547519Y-113663366D01*
X273545523Y-113663497D01*
X273544412Y-113661834D01*
X273544745Y-113660592D01*
X273552048Y-113649661D01*
X273555800Y-113630801D01*
X273555800Y-112631199D01*
X273552048Y-112612339D01*
X273544745Y-112601409D01*
X273544614Y-112599413D01*
X273546277Y-112598302D01*
X273547519Y-112598635D01*
G37*
G36*
X270047519Y-112598635D02*
G01*
X270061312Y-112607851D01*
X270062435Y-112606171D01*
X270064229Y-112605286D01*
X270065380Y-112605747D01*
X270082951Y-112620429D01*
X270151669Y-112629056D01*
X270199500Y-112606168D01*
X270201494Y-112606322D01*
X270202026Y-112606861D01*
X270202688Y-112607851D01*
X270216481Y-112598634D01*
X270218477Y-112598503D01*
X270219588Y-112600166D01*
X270219255Y-112601408D01*
X270211952Y-112612339D01*
X270208200Y-112631199D01*
X270208200Y-113630801D01*
X270211952Y-113649661D01*
X270219255Y-113660591D01*
X270219386Y-113662587D01*
X270217723Y-113663698D01*
X270216481Y-113663365D01*
X270202688Y-113654149D01*
X270201565Y-113655829D01*
X270199771Y-113656714D01*
X270198620Y-113656253D01*
X270181049Y-113641571D01*
X270112331Y-113632944D01*
X270064500Y-113655832D01*
X270062506Y-113655678D01*
X270061974Y-113655139D01*
X270061312Y-113654149D01*
X270047519Y-113663366D01*
X270045523Y-113663497D01*
X270044412Y-113661834D01*
X270044745Y-113660592D01*
X270052048Y-113649661D01*
X270055800Y-113630801D01*
X270055800Y-112631199D01*
X270052048Y-112612339D01*
X270044745Y-112601409D01*
X270044614Y-112599413D01*
X270046277Y-112598302D01*
X270047519Y-112598635D01*
G37*
G36*
X276047519Y-112598635D02*
G01*
X276061312Y-112607851D01*
X276062435Y-112606171D01*
X276064229Y-112605286D01*
X276065380Y-112605747D01*
X276082951Y-112620429D01*
X276151669Y-112629056D01*
X276199500Y-112606168D01*
X276201494Y-112606322D01*
X276202026Y-112606861D01*
X276202688Y-112607851D01*
X276216481Y-112598634D01*
X276218477Y-112598503D01*
X276219588Y-112600166D01*
X276219255Y-112601408D01*
X276211952Y-112612339D01*
X276208200Y-112631199D01*
X276208200Y-113630801D01*
X276211952Y-113649661D01*
X276219255Y-113660591D01*
X276219386Y-113662587D01*
X276217723Y-113663698D01*
X276216481Y-113663365D01*
X276202688Y-113654149D01*
X276201565Y-113655829D01*
X276199771Y-113656714D01*
X276198620Y-113656253D01*
X276181049Y-113641571D01*
X276112331Y-113632944D01*
X276064500Y-113655832D01*
X276062506Y-113655678D01*
X276061974Y-113655139D01*
X276061312Y-113654149D01*
X276047519Y-113663366D01*
X276045523Y-113663497D01*
X276044412Y-113661834D01*
X276044745Y-113660592D01*
X276052048Y-113649661D01*
X276055800Y-113630801D01*
X276055800Y-112631199D01*
X276052048Y-112612339D01*
X276044745Y-112601409D01*
X276044614Y-112599413D01*
X276046277Y-112598302D01*
X276047519Y-112598635D01*
G37*
G36*
X269547519Y-112598635D02*
G01*
X269561312Y-112607851D01*
X269562435Y-112606171D01*
X269564229Y-112605286D01*
X269565380Y-112605747D01*
X269582951Y-112620429D01*
X269651669Y-112629056D01*
X269699500Y-112606168D01*
X269701494Y-112606322D01*
X269702026Y-112606861D01*
X269702688Y-112607851D01*
X269716481Y-112598634D01*
X269718477Y-112598503D01*
X269719588Y-112600166D01*
X269719255Y-112601408D01*
X269711952Y-112612339D01*
X269708200Y-112631199D01*
X269708200Y-113630801D01*
X269711952Y-113649661D01*
X269719255Y-113660591D01*
X269719386Y-113662587D01*
X269717723Y-113663698D01*
X269716481Y-113663365D01*
X269702688Y-113654149D01*
X269701565Y-113655829D01*
X269699771Y-113656714D01*
X269698620Y-113656253D01*
X269681049Y-113641571D01*
X269612331Y-113632944D01*
X269564500Y-113655832D01*
X269562506Y-113655678D01*
X269561974Y-113655139D01*
X269561312Y-113654149D01*
X269547519Y-113663366D01*
X269545523Y-113663497D01*
X269544412Y-113661834D01*
X269544745Y-113660592D01*
X269552048Y-113649661D01*
X269555800Y-113630801D01*
X269555800Y-112631199D01*
X269552048Y-112612339D01*
X269544745Y-112601409D01*
X269544614Y-112599413D01*
X269546277Y-112598302D01*
X269547519Y-112598635D01*
G37*
G36*
X271547519Y-112598635D02*
G01*
X271561312Y-112607851D01*
X271562435Y-112606171D01*
X271564229Y-112605286D01*
X271565380Y-112605747D01*
X271582951Y-112620429D01*
X271651669Y-112629056D01*
X271699500Y-112606168D01*
X271701494Y-112606322D01*
X271702026Y-112606861D01*
X271702688Y-112607851D01*
X271716481Y-112598634D01*
X271718477Y-112598503D01*
X271719588Y-112600166D01*
X271719255Y-112601408D01*
X271711952Y-112612339D01*
X271708200Y-112631199D01*
X271708200Y-113630801D01*
X271711952Y-113649661D01*
X271719255Y-113660591D01*
X271719386Y-113662587D01*
X271717723Y-113663698D01*
X271716481Y-113663365D01*
X271702688Y-113654149D01*
X271701565Y-113655829D01*
X271699771Y-113656714D01*
X271698620Y-113656253D01*
X271681049Y-113641571D01*
X271612331Y-113632944D01*
X271564500Y-113655832D01*
X271562506Y-113655678D01*
X271561974Y-113655139D01*
X271561312Y-113654149D01*
X271547519Y-113663366D01*
X271545523Y-113663497D01*
X271544412Y-113661834D01*
X271544745Y-113660592D01*
X271552048Y-113649661D01*
X271555800Y-113630801D01*
X271555800Y-112631199D01*
X271552048Y-112612339D01*
X271544745Y-112601409D01*
X271544614Y-112599413D01*
X271546277Y-112598302D01*
X271547519Y-112598635D01*
G37*
G36*
X272047519Y-112598635D02*
G01*
X272061312Y-112607851D01*
X272062435Y-112606171D01*
X272064229Y-112605286D01*
X272065380Y-112605747D01*
X272082951Y-112620429D01*
X272151669Y-112629056D01*
X272199500Y-112606168D01*
X272201494Y-112606322D01*
X272202026Y-112606861D01*
X272202688Y-112607851D01*
X272216481Y-112598634D01*
X272218477Y-112598503D01*
X272219588Y-112600166D01*
X272219255Y-112601408D01*
X272211952Y-112612339D01*
X272208200Y-112631199D01*
X272208200Y-113630801D01*
X272211952Y-113649661D01*
X272219255Y-113660591D01*
X272219386Y-113662587D01*
X272217723Y-113663698D01*
X272216481Y-113663365D01*
X272202688Y-113654149D01*
X272201565Y-113655829D01*
X272199771Y-113656714D01*
X272198620Y-113656253D01*
X272181049Y-113641571D01*
X272112331Y-113632944D01*
X272064500Y-113655832D01*
X272062506Y-113655678D01*
X272061974Y-113655139D01*
X272061312Y-113654149D01*
X272047519Y-113663366D01*
X272045523Y-113663497D01*
X272044412Y-113661834D01*
X272044745Y-113660592D01*
X272052048Y-113649661D01*
X272055800Y-113630801D01*
X272055800Y-112631199D01*
X272052048Y-112612339D01*
X272044745Y-112601409D01*
X272044614Y-112599413D01*
X272046277Y-112598302D01*
X272047519Y-112598635D01*
G37*
G36*
X274547519Y-112598635D02*
G01*
X274561312Y-112607851D01*
X274562435Y-112606171D01*
X274564229Y-112605286D01*
X274565380Y-112605747D01*
X274582951Y-112620429D01*
X274651669Y-112629056D01*
X274699500Y-112606168D01*
X274701494Y-112606322D01*
X274702026Y-112606861D01*
X274702688Y-112607851D01*
X274716481Y-112598634D01*
X274718477Y-112598503D01*
X274719588Y-112600166D01*
X274719255Y-112601408D01*
X274711952Y-112612339D01*
X274708200Y-112631199D01*
X274708200Y-113630801D01*
X274711952Y-113649661D01*
X274719255Y-113660591D01*
X274719386Y-113662587D01*
X274717723Y-113663698D01*
X274716481Y-113663365D01*
X274702688Y-113654149D01*
X274701565Y-113655829D01*
X274699771Y-113656714D01*
X274698620Y-113656253D01*
X274681049Y-113641571D01*
X274612331Y-113632944D01*
X274564500Y-113655832D01*
X274562506Y-113655678D01*
X274561974Y-113655139D01*
X274561312Y-113654149D01*
X274547519Y-113663366D01*
X274545523Y-113663497D01*
X274544412Y-113661834D01*
X274544745Y-113660592D01*
X274552048Y-113649661D01*
X274555800Y-113630801D01*
X274555800Y-112631199D01*
X274552048Y-112612339D01*
X274544745Y-112601409D01*
X274544614Y-112599413D01*
X274546277Y-112598302D01*
X274547519Y-112598635D01*
G37*
G36*
X271047519Y-112598635D02*
G01*
X271061312Y-112607851D01*
X271062435Y-112606171D01*
X271064229Y-112605286D01*
X271065380Y-112605747D01*
X271082951Y-112620429D01*
X271151669Y-112629056D01*
X271199500Y-112606168D01*
X271201494Y-112606322D01*
X271202026Y-112606861D01*
X271202688Y-112607851D01*
X271216481Y-112598634D01*
X271218477Y-112598503D01*
X271219588Y-112600166D01*
X271219255Y-112601408D01*
X271211952Y-112612339D01*
X271208200Y-112631199D01*
X271208200Y-113630801D01*
X271211952Y-113649661D01*
X271219255Y-113660591D01*
X271219386Y-113662587D01*
X271217723Y-113663698D01*
X271216481Y-113663365D01*
X271202688Y-113654149D01*
X271201565Y-113655829D01*
X271199771Y-113656714D01*
X271198620Y-113656253D01*
X271181049Y-113641571D01*
X271112331Y-113632944D01*
X271064500Y-113655832D01*
X271062506Y-113655678D01*
X271061974Y-113655139D01*
X271061312Y-113654149D01*
X271047519Y-113663366D01*
X271045523Y-113663497D01*
X271044412Y-113661834D01*
X271044745Y-113660592D01*
X271052048Y-113649661D01*
X271055800Y-113630801D01*
X271055800Y-112631199D01*
X271052048Y-112612339D01*
X271044745Y-112601409D01*
X271044614Y-112599413D01*
X271046277Y-112598302D01*
X271047519Y-112598635D01*
G37*
G36*
X273047519Y-112598635D02*
G01*
X273061312Y-112607851D01*
X273062435Y-112606171D01*
X273064229Y-112605286D01*
X273065380Y-112605747D01*
X273082951Y-112620429D01*
X273151669Y-112629056D01*
X273199500Y-112606168D01*
X273201494Y-112606322D01*
X273202026Y-112606861D01*
X273202688Y-112607851D01*
X273216481Y-112598634D01*
X273218477Y-112598503D01*
X273219588Y-112600166D01*
X273219255Y-112601408D01*
X273211952Y-112612339D01*
X273208200Y-112631199D01*
X273208200Y-113630801D01*
X273211952Y-113649661D01*
X273219255Y-113660591D01*
X273219386Y-113662587D01*
X273217723Y-113663698D01*
X273216481Y-113663365D01*
X273202688Y-113654149D01*
X273201565Y-113655829D01*
X273199771Y-113656714D01*
X273198620Y-113656253D01*
X273181049Y-113641571D01*
X273112331Y-113632944D01*
X273064500Y-113655832D01*
X273062506Y-113655678D01*
X273061974Y-113655139D01*
X273061312Y-113654149D01*
X273047519Y-113663366D01*
X273045523Y-113663497D01*
X273044412Y-113661834D01*
X273044745Y-113660592D01*
X273052048Y-113649661D01*
X273055800Y-113630801D01*
X273055800Y-112631199D01*
X273052048Y-112612339D01*
X273044745Y-112601409D01*
X273044614Y-112599413D01*
X273046277Y-112598302D01*
X273047519Y-112598635D01*
G37*
G36*
X270547519Y-112598635D02*
G01*
X270561312Y-112607851D01*
X270562435Y-112606171D01*
X270564229Y-112605286D01*
X270565380Y-112605747D01*
X270582951Y-112620429D01*
X270651669Y-112629056D01*
X270699500Y-112606168D01*
X270701494Y-112606322D01*
X270702026Y-112606861D01*
X270702688Y-112607851D01*
X270716481Y-112598634D01*
X270718477Y-112598503D01*
X270719588Y-112600166D01*
X270719255Y-112601408D01*
X270711952Y-112612339D01*
X270708200Y-112631199D01*
X270708200Y-113630801D01*
X270711952Y-113649661D01*
X270719255Y-113660591D01*
X270719386Y-113662587D01*
X270717723Y-113663698D01*
X270716481Y-113663365D01*
X270702688Y-113654149D01*
X270701565Y-113655829D01*
X270699771Y-113656714D01*
X270698620Y-113656253D01*
X270681049Y-113641571D01*
X270612331Y-113632944D01*
X270564500Y-113655832D01*
X270562506Y-113655678D01*
X270561974Y-113655139D01*
X270561312Y-113654149D01*
X270547519Y-113663366D01*
X270545523Y-113663497D01*
X270544412Y-113661834D01*
X270544745Y-113660592D01*
X270552048Y-113649661D01*
X270555800Y-113630801D01*
X270555800Y-112631199D01*
X270552048Y-112612339D01*
X270544745Y-112601409D01*
X270544614Y-112599413D01*
X270546277Y-112598302D01*
X270547519Y-112598635D01*
G37*
M02*
